<?xml version="1.0" encoding="UTF-8" standalone="no"?><!DOCTYPE svg PUBLIC "-//W3C//DTD SVG 1.1//EN" "http://www.w3.org/Graphics/SVG/1.1/DTD/svg11.dtd"><svg width="100%" height="100%" viewBox="0 0 2300 2300" version="1.1" xmlns="http://www.w3.org/2000/svg" xmlns:xlink="http://www.w3.org/1999/xlink" xml:space="preserve" xmlns:serif="http://www.serif.com/" style="fill-rule:evenodd;clip-rule:evenodd;stroke-linejoin:round;stroke-miterlimit:2;"><g id="DUO" transform="matrix(6.93026,0,0,6.93026,-1577.75,-2614.96)"><g><path d="M393.6,466.463C435.987,466.463 470.4,500.876 470.4,543.263C470.4,585.65 435.987,620.063 393.6,620.063C351.213,620.063 316.8,585.65 316.8,543.263C316.8,500.876 351.213,466.463 393.6,466.463ZM393.6,476.063C356.511,476.063 326.4,506.175 326.4,543.263C326.4,580.352 356.511,610.463 393.6,610.463C430.689,610.463 460.8,580.352 460.8,543.263C460.8,506.175 430.689,476.063 393.6,476.063Z"/></g></g></svg>