<?xml version="1.0" encoding="UTF-8" standalone="no"?><!DOCTYPE svg PUBLIC "-//W3C//DTD SVG 1.1//EN" "http://www.w3.org/Graphics/SVG/1.1/DTD/svg11.dtd"><svg width="100%" height="100%" viewBox="0 0 2291 1679" version="1.1" xmlns="http://www.w3.org/2000/svg" xmlns:xlink="http://www.w3.org/1999/xlink" xml:space="preserve" xmlns:serif="http://www.serif.com/" style="fill-rule:evenodd;clip-rule:evenodd;stroke-linejoin:round;stroke-miterlimit:2;"><g transform="matrix(0.79999,0,0,0.79999,-294.55,-179.382)"><path d="M2178.09,854.111C2064.49,682.614 1869.8,569.419 1648.87,569.419C1425.18,569.419 1228.38,685.468 1115.43,860.581C1063.54,941.021 1029.35,1033.93 1018.38,1133.78C1017.22,1144.38 1008.23,1152.39 997.559,1152.34C986.891,1152.28 977.99,1144.17 976.94,1133.56C974.265,1106.51 972.895,1079.08 972.895,1051.34C972.895,985.025 980.718,920.528 995.486,858.716C1082.38,494.997 1409.82,224.23 1800,224.23C2190.18,224.23 2517.62,494.997 2604.51,858.716C2619.28,920.528 2627.11,985.025 2627.11,1051.34C2627.11,1111.07 2620.76,1169.34 2608.7,1225.49C2607.49,1231.15 2603.97,1236.05 2599,1239.01C2594.03,1241.98 2588.05,1242.74 2582.49,1241.12C2526.07,1224.65 2466.41,1215.83 2404.7,1215.83C2371.55,1215.83 2338.98,1218.38 2307.2,1223.29C2176.76,1243.44 2059.4,1303.41 1967.92,1390.35C1904.49,1450.63 1853.5,1523.88 1819.22,1605.83C1787.77,1681.04 1770.39,1763.58 1770.39,1850.14L1770.39,1851.14C1770.4,1852.72 1770.4,1854.29 1770.42,1855.87C1770.92,1912.81 1778.94,1967.96 1793.54,2020.39C1800.6,2045.75 1809.19,2070.47 1819.22,2094.44C1826.34,2111.46 1834.17,2128.1 1842.69,2144.32C1870.07,2196.46 1904.48,2244.33 1944.67,2286.67C1952.09,2294.49 1952.33,2306.68 1945.21,2314.77C1938.09,2322.86 1925.97,2324.19 1917.27,2317.83C1868.69,2282.31 1824.12,2241.63 1784.38,2196.59C1775.87,2186.94 1767.57,2177.09 1759.51,2167.05C1725.32,2124.48 1695.26,2078.46 1669.93,2029.6C1642.84,1977.35 1621.16,1921.86 1605.64,1863.86C1603.73,1856.73 1601.91,1849.55 1600.19,1842.35C1585.42,1780.54 1577.6,1716.04 1577.6,1649.73C1577.6,1550.88 1594.98,1456.05 1626.85,1368.15C1662.54,1269.69 1716.4,1179.91 1784.38,1102.87C1887.74,985.724 2023.74,898.05 2178.09,854.111ZM2776.85,911.001C3046.64,1047.29 3231.81,1327.06 3231.81,1649.73C3231.81,1924.03 3098,2167.32 2892.14,2317.83C2883.44,2324.19 2871.32,2322.86 2864.2,2314.77C2857.08,2306.68 2857.31,2294.49 2864.74,2286.67C2972.72,2172.92 3039.01,2019.21 3039.01,1850.14C3039.01,1620.82 2917.06,1419.77 2734.53,1308.33C2726.74,1303.58 2722.95,1294.3 2725.19,1285.45C2744.11,1210.53 2754.17,1132.1 2754.17,1051.34C2754.17,1010.98 2751.66,971.216 2746.79,932.176C2745.83,924.538 2749.17,916.996 2755.46,912.563C2761.76,908.131 2769.98,907.53 2776.85,911.001ZM707.86,2317.83C502.001,2167.32 368.192,1924.03 368.192,1649.73C368.192,1327.06 553.359,1047.29 823.147,911.001C830.018,907.53 838.243,908.131 844.537,912.563C850.83,916.996 854.167,924.538 853.214,932.176C848.342,971.216 845.833,1010.98 845.833,1051.34C845.833,1132.1 855.886,1210.53 874.812,1285.45C877.048,1294.3 873.261,1303.58 865.469,1308.33C682.944,1419.77 560.987,1620.82 560.987,1850.14C560.987,2019.21 627.279,2172.92 735.265,2286.67C742.686,2294.49 742.918,2306.68 735.799,2314.77C728.68,2322.86 716.562,2324.19 707.86,2317.83Z"/></g></svg>