<?xml version="1.0" encoding="UTF-8" standalone="no"?><!DOCTYPE svg PUBLIC "-//W3C//DTD SVG 1.1//EN" "http://www.w3.org/Graphics/SVG/1.1/DTD/svg11.dtd"><svg width="100%" height="100%" viewBox="0 0 3600 1233" version="1.1" xmlns="http://www.w3.org/2000/svg" xmlns:xlink="http://www.w3.org/1999/xlink" xml:space="preserve" xmlns:serif="http://www.serif.com/" style="fill-rule:evenodd;clip-rule:evenodd;stroke-linejoin:round;stroke-miterlimit:2;"><path d="M969.636,422.068C916.922,342.488 826.579,289.961 724.06,289.961C620.26,289.961 528.939,343.812 476.526,425.071C452.447,462.397 436.582,505.51 431.491,551.844C430.953,556.763 426.781,560.48 421.83,560.457C416.879,560.429 412.749,556.666 412.262,551.742C411.02,539.19 410.385,526.462 410.385,513.589C410.385,482.817 414.015,452.888 420.868,424.205C461.19,255.427 613.133,129.782 794.19,129.782C975.247,129.782 1127.19,255.427 1167.51,424.205C1174.36,452.888 1178,482.817 1178,513.589C1178,541.306 1175.05,568.345 1169.45,594.401C1168.89,597.027 1167.26,599.301 1164.95,600.675C1162.65,602.053 1159.87,602.405 1157.29,601.654C1131.11,594.011 1103.43,589.918 1074.79,589.918C1059.41,589.918 1044.3,591.101 1029.55,593.38C969.019,602.73 914.56,630.558 872.11,670.901C842.677,698.873 819.016,732.864 803.108,770.892C788.515,805.792 780.45,844.093 780.45,884.26L780.45,884.724C780.454,885.457 780.454,886.185 780.464,886.919C780.696,913.341 784.417,938.932 791.192,963.262C794.468,975.029 798.454,986.5 803.108,997.623C806.412,1005.52 810.046,1013.24 813.999,1020.77C826.705,1044.96 842.672,1067.18 861.322,1086.83C864.765,1090.45 864.876,1096.11 861.572,1099.86C858.268,1103.62 852.644,1104.24 848.607,1101.28C826.064,1084.8 805.382,1065.92 786.942,1045.02C782.993,1040.55 779.141,1035.98 775.401,1031.32C759.536,1011.56 745.587,990.208 733.833,967.535C721.262,943.29 711.202,917.54 704,890.626C703.114,887.318 702.269,883.986 701.471,880.645C694.617,851.963 690.989,822.033 690.989,791.263C690.989,745.393 699.053,701.388 713.842,660.6C730.404,614.911 755.396,573.25 786.942,537.501C834.904,483.141 898.013,442.457 969.636,422.068ZM1247.48,448.467C1372.67,511.71 1458.6,641.533 1458.6,791.263C1458.6,918.547 1396.51,1031.44 1300.98,1101.28C1296.94,1104.24 1291.32,1103.62 1288.02,1099.86C1284.71,1096.11 1284.82,1090.45 1288.27,1086.83C1338.37,1034.04 1369.13,962.714 1369.13,884.26C1369.13,777.847 1312.54,684.553 1227.84,632.841C1224.23,630.637 1222.47,626.331 1223.51,622.224C1232.29,587.459 1236.96,551.065 1236.96,513.589C1236.96,494.861 1235.79,476.409 1233.53,458.293C1233.09,454.749 1234.64,451.249 1237.56,449.192C1240.48,447.135 1244.29,446.856 1247.48,448.467ZM287.399,1101.28C191.874,1031.44 129.782,918.547 129.782,791.263C129.782,641.533 215.706,511.71 340.897,448.467C344.085,446.856 347.902,447.135 350.822,449.192C353.742,451.249 355.291,454.749 354.849,458.293C352.588,476.409 351.424,494.861 351.424,513.589C351.424,551.065 356.089,587.459 364.871,622.224C365.908,626.331 364.151,630.637 360.535,632.841C275.838,684.553 219.245,777.847 219.245,884.26C219.245,962.714 250.007,1034.04 300.116,1086.83C303.56,1090.45 303.668,1096.11 300.364,1099.86C297.061,1103.62 291.437,1104.24 287.399,1101.28ZM1591.62,584.019C1589.46,584.019 1588.38,582.937 1588.38,580.774L1588.38,133.026C1588.38,132.161 1588.6,131.296 1589.03,130.431C1589.89,129.998 1590.76,129.782 1591.62,129.782L1815.5,129.782C1826.75,129.782 1837.56,131.729 1847.94,135.622C1861.79,140.381 1873.9,147.951 1884.28,158.334C1894.67,168.716 1902.24,180.829 1907,194.673C1910.89,205.055 1912.84,215.871 1912.84,227.118L1912.84,321.21C1912.84,322.075 1912.62,322.941 1912.19,323.806C1911.32,324.238 1910.46,324.455 1909.59,324.455L1880.39,324.455C1871.31,324.455 1863.63,327.591 1857.35,333.864C1851.08,340.137 1847.94,347.816 1847.94,356.9C1847.94,365.985 1851.08,373.664 1857.35,379.937C1863.63,386.209 1871.31,389.346 1880.39,389.346L1909.59,389.346C1910.46,389.346 1911.32,389.562 1912.19,389.995C1912.62,390.86 1912.84,391.725 1912.84,392.59L1912.84,580.774C1912.84,581.639 1912.62,582.504 1912.19,583.37C1911.32,583.802 1910.46,584.019 1909.59,584.019L1851.19,584.019C1849.03,584.019 1847.94,582.937 1847.94,580.774L1847.94,421.791C1847.94,412.706 1844.81,405.028 1838.54,398.755C1832.26,392.482 1824.58,389.346 1815.5,389.346L1656.52,389.346C1655.65,389.346 1654.79,389.562 1653.92,389.995C1653.49,390.86 1653.27,391.725 1653.27,392.59L1653.27,580.774C1653.27,581.639 1653.06,582.504 1652.62,583.37C1651.76,583.802 1650.89,584.019 1650.03,584.019L1591.62,584.019ZM1815.5,194.673L1656.52,194.673C1655.65,194.673 1654.79,194.889 1653.92,195.322C1653.49,196.187 1653.27,197.052 1653.27,197.917L1653.27,321.21C1653.27,322.075 1653.49,322.941 1653.92,323.806C1654.79,324.238 1655.65,324.455 1656.52,324.455L1815.5,324.455C1824.58,324.455 1832.26,321.318 1838.54,315.046C1844.81,308.773 1847.94,301.094 1847.94,292.009L1847.94,227.118C1847.94,218.034 1844.81,210.355 1838.54,204.082C1832.26,197.809 1824.58,194.673 1815.5,194.673ZM2302.18,580.774C2302.18,582.937 2301.1,584.019 2298.94,584.019L1980.97,584.019C1978.81,584.019 1977.73,582.937 1977.73,580.774L1977.73,133.026C1977.73,130.863 1978.81,129.782 1980.97,129.782L2298.94,129.782C2301.1,129.782 2302.18,130.863 2302.18,133.026L2302.18,191.428C2302.18,193.591 2301.1,194.673 2298.94,194.673L2045.86,194.673C2043.7,194.673 2042.62,195.754 2042.62,197.917L2042.62,321.21C2042.62,322.075 2042.83,322.941 2043.27,323.806C2044.13,324.238 2045,324.455 2045.86,324.455L2234.05,324.455C2234.91,324.455 2235.78,324.671 2236.64,325.104C2237.07,325.969 2237.29,326.834 2237.29,327.699L2237.29,386.101C2237.29,386.966 2237.07,387.832 2236.64,388.697C2235.78,389.129 2234.91,389.346 2234.05,389.346L2045.86,389.346C2045,389.346 2044.13,389.562 2043.27,389.995C2042.83,390.86 2042.62,391.725 2042.62,392.59L2042.62,515.883C2042.62,518.046 2043.7,519.128 2045.86,519.128L2298.94,519.128C2301.1,519.128 2302.18,520.209 2302.18,522.372L2302.18,580.774ZM2435.21,389.346C2434.34,389.346 2433.48,389.562 2432.61,389.995C2432.18,390.86 2431.96,391.725 2431.96,392.59L2431.96,580.774C2431.96,581.639 2431.75,582.504 2431.31,583.37C2430.45,583.802 2429.58,584.019 2428.72,584.019L2370.32,584.019C2369.45,584.019 2368.59,583.802 2367.72,583.37C2367.29,582.504 2367.07,581.639 2367.07,580.774L2367.07,197.917C2367.07,195.754 2368.15,194.673 2370.32,194.673L2399.52,194.673C2408.6,194.673 2416.28,191.536 2422.55,185.264C2428.83,178.991 2431.96,171.312 2431.96,162.227L2431.96,133.026C2431.96,132.161 2432.18,131.296 2432.61,130.431C2433.48,129.998 2434.34,129.782 2435.21,129.782L2623.39,129.782C2624.26,129.782 2625.12,129.998 2625.99,130.431C2626.42,131.296 2626.64,132.161 2626.64,133.026L2626.64,162.227C2626.64,171.312 2629.77,178.991 2636.05,185.264C2642.32,191.536 2650,194.673 2659.08,194.673L2688.28,194.673C2690.45,194.673 2691.53,195.754 2691.53,197.917L2691.53,580.774C2691.53,581.639 2691.31,582.504 2690.88,583.37C2690.01,583.802 2689.15,584.019 2688.28,584.019L2629.88,584.019C2629.01,584.019 2628.15,583.802 2627.28,583.37C2626.85,582.504 2626.64,581.639 2626.64,580.774L2626.64,392.59C2626.64,391.725 2626.42,390.86 2625.99,389.995C2625.12,389.562 2624.26,389.346 2623.39,389.346L2435.21,389.346ZM2431.96,227.118L2431.96,321.21C2431.96,322.075 2432.18,322.941 2432.61,323.806C2433.48,324.238 2434.34,324.455 2435.21,324.455L2623.39,324.455C2624.26,324.455 2625.12,324.238 2625.99,323.806C2626.42,322.941 2626.64,322.075 2626.64,321.21L2626.64,227.118C2626.64,218.034 2623.5,210.355 2617.23,204.082C2610.95,197.809 2603.28,194.673 2594.19,194.673L2464.41,194.673C2455.32,194.673 2447.64,197.809 2441.37,204.082C2435.1,210.355 2431.96,218.034 2431.96,227.118ZM1591.62,1038.26C1589.46,1038.26 1588.38,1037.17 1588.38,1035.01L1588.38,746.246C1588.38,734.998 1590.33,724.183 1594.22,713.8C1598.98,699.957 1606.55,687.844 1616.93,677.462C1627.32,667.079 1639.43,659.508 1653.27,654.75C1663.65,650.856 1674.47,648.91 1685.72,648.91L1815.5,648.91C1826.75,648.91 1837.56,650.856 1847.94,654.75C1861.79,659.508 1873.9,667.079 1884.28,677.462C1894.67,687.844 1902.24,699.957 1907,713.8C1910.89,724.183 1912.84,734.998 1912.84,746.246L1912.84,775.447C1912.84,777.61 1911.75,778.691 1909.59,778.691L1851.19,778.691C1849.03,778.691 1847.94,777.61 1847.94,775.447L1847.94,746.246C1847.94,737.161 1844.81,729.482 1838.54,723.21C1832.26,716.937 1824.58,713.8 1815.5,713.8L1685.72,713.8C1676.63,713.8 1668.95,716.937 1662.68,723.21C1656.41,729.482 1653.27,737.161 1653.27,746.246L1653.27,1005.81C1653.27,1014.89 1656.41,1022.57 1662.68,1028.85C1668.95,1035.12 1676.63,1038.26 1685.72,1038.26L1815.5,1038.26C1824.58,1038.26 1832.26,1035.12 1838.54,1028.85C1844.81,1022.57 1847.94,1014.89 1847.94,1005.81L1847.94,976.609C1847.94,974.446 1849.03,973.364 1851.19,973.364L1909.59,973.364C1911.75,973.364 1912.84,974.446 1912.84,976.609L1912.84,1035.01C1912.84,1037.17 1911.75,1038.26 1909.59,1038.26L1880.39,1038.26C1871.31,1038.26 1863.63,1041.39 1857.35,1047.66C1851.08,1053.94 1847.94,1061.62 1847.94,1070.7L1847.94,1099.9C1847.94,1100.77 1847.73,1101.63 1847.3,1102.5C1846.43,1102.93 1845.57,1103.15 1844.7,1103.15L1656.52,1103.15C1655.65,1103.15 1654.79,1102.93 1653.92,1102.5C1653.49,1101.63 1653.27,1100.77 1653.27,1099.9L1653.27,1070.7C1653.27,1061.62 1650.13,1053.94 1643.86,1047.66C1637.59,1041.39 1629.91,1038.26 1620.83,1038.26L1591.62,1038.26ZM1980.97,1103.15C1978.81,1103.15 1977.73,1102.07 1977.73,1099.9L1977.73,652.154C1977.73,649.991 1978.81,648.91 1980.97,648.91L2039.37,648.91C2040.24,648.91 2041.1,649.126 2041.97,649.558C2042.4,650.424 2042.62,651.289 2042.62,652.154L2042.62,1035.01C2042.62,1037.17 2043.7,1038.26 2045.86,1038.26L2298.94,1038.26C2301.1,1038.26 2302.18,1039.34 2302.18,1041.5L2302.18,1099.9C2302.18,1102.07 2301.1,1103.15 2298.94,1103.15L1980.97,1103.15ZM2370.32,1038.26C2368.15,1038.26 2367.07,1037.17 2367.07,1035.01L2367.07,746.246C2367.07,734.998 2369.02,724.183 2372.91,713.8C2377.67,699.957 2385.24,687.844 2395.62,677.462C2406.01,667.079 2418.12,659.508 2431.96,654.75C2442.35,650.856 2453.16,648.91 2464.41,648.91L2594.19,648.91C2605.44,648.91 2616.25,650.856 2626.64,654.75C2640.48,659.508 2652.59,667.079 2662.97,677.462C2673.36,687.844 2680.93,699.957 2685.69,713.8C2689.58,724.183 2691.53,734.998 2691.53,746.246L2691.53,1035.01C2691.53,1037.17 2690.45,1038.26 2688.28,1038.26L2659.08,1038.26C2650,1038.26 2642.32,1041.39 2636.05,1047.66C2629.77,1053.94 2626.64,1061.62 2626.64,1070.7L2626.64,1099.9C2626.64,1100.77 2626.42,1101.63 2625.99,1102.5C2625.12,1102.93 2624.26,1103.15 2623.39,1103.15L2435.21,1103.15C2434.34,1103.15 2433.48,1102.93 2432.61,1102.5C2432.18,1101.63 2431.96,1100.77 2431.96,1099.9L2431.96,1070.7C2431.96,1061.62 2428.83,1053.94 2422.55,1047.66C2416.28,1041.39 2408.6,1038.26 2399.52,1038.26L2370.32,1038.26ZM2594.19,713.8L2464.41,713.8C2455.32,713.8 2447.64,716.937 2441.37,723.21C2435.1,729.482 2431.96,737.161 2431.96,746.246L2431.96,918.207C2431.96,919.505 2432.61,920.586 2433.91,921.452C2435.21,921.884 2436.29,921.668 2437.15,920.803C2448.4,910.42 2481.71,879.705 2537.09,828.657C2592.46,777.61 2621.88,750.572 2625.34,747.544C2626.2,746.679 2626.64,745.813 2626.64,744.948C2626.2,736.296 2622.85,728.942 2616.58,722.885C2610.3,716.829 2602.84,713.8 2594.19,713.8ZM2433.26,1008.4C2432.39,1009.27 2432.18,1010.14 2432.61,1011C2433.48,1018.79 2436.94,1025.28 2442.99,1030.47C2449.05,1035.66 2456.19,1038.26 2464.41,1038.26L2594.19,1038.26C2603.28,1038.26 2610.95,1035.12 2617.23,1028.85C2623.5,1022.57 2626.64,1014.89 2626.64,1005.81L2626.64,833.849C2626.64,832.551 2625.99,831.469 2624.69,830.604C2623.39,830.172 2622.31,830.388 2621.44,831.253C2611.93,840.338 2579.48,870.945 2524.11,923.074C2468.73,975.203 2438.45,1003.65 2433.26,1008.4ZM2788.86,1038.26L2759.66,1038.26C2757.5,1038.26 2756.42,1037.17 2756.42,1035.01L2756.42,652.154C2756.42,651.289 2756.63,650.424 2757.07,649.558C2757.93,649.126 2758.8,648.91 2759.66,648.91L2818.06,648.91C2818.93,648.91 2819.79,649.126 2820.66,649.558C2821.09,650.424 2821.31,651.289 2821.31,652.154L2821.31,1005.81C2821.31,1014.89 2824.45,1022.57 2830.72,1028.85C2836.99,1035.12 2844.67,1038.26 2853.75,1038.26L2983.54,1038.26C2992.62,1038.26 3000.3,1035.12 3006.57,1028.85C3012.85,1022.57 3015.98,1014.89 3015.98,1005.81L3015.98,652.154C3015.98,651.289 3016.2,650.424 3016.63,649.558C3017.5,649.126 3018.36,648.91 3019.23,648.91L3077.63,648.91C3078.49,648.91 3079.36,649.126 3080.22,649.558C3080.66,650.424 3080.87,651.289 3080.87,652.154L3080.87,1035.01C3080.87,1037.17 3079.79,1038.26 3077.63,1038.26L3048.43,1038.26C3039.34,1038.26 3031.66,1041.39 3025.39,1047.66C3019.12,1053.94 3015.98,1061.62 3015.98,1070.7L3015.98,1099.9C3015.98,1100.77 3015.76,1101.63 3015.33,1102.5C3014.47,1102.93 3013.6,1103.15 3012.74,1103.15L2824.55,1103.15C2823.69,1103.15 2822.82,1102.93 2821.96,1102.5C2821.53,1101.63 2821.31,1100.77 2821.31,1099.9L2821.31,1070.7C2821.31,1061.62 2818.17,1053.94 2811.9,1047.66C2805.63,1041.39 2797.95,1038.26 2788.86,1038.26ZM3405.33,1099.9C3405.33,1102.07 3404.25,1103.15 3402.08,1103.15L3149.01,1103.15C3146.85,1103.15 3145.76,1102.07 3145.76,1099.9L3145.76,652.154C3145.76,651.289 3145.98,650.424 3146.41,649.558C3147.28,649.126 3148.14,648.91 3149.01,648.91L3372.88,648.91C3384.13,648.91 3394.95,650.856 3405.33,654.75C3419.17,659.508 3431.28,667.079 3441.67,677.462C3452.05,687.844 3459.62,699.957 3464.38,713.8C3468.27,724.183 3470.22,734.998 3470.22,746.246L3470.22,1035.01C3470.22,1037.17 3469.14,1038.26 3466.97,1038.26L3437.77,1038.26C3428.69,1038.26 3421.01,1041.39 3414.74,1047.66C3408.46,1053.94 3405.33,1061.62 3405.33,1070.7L3405.33,1099.9ZM3213.9,713.8C3211.74,713.8 3210.65,714.882 3210.65,717.045L3210.65,1035.01C3210.65,1037.17 3211.74,1038.26 3213.9,1038.26L3372.88,1038.26C3381.97,1038.26 3389.64,1035.12 3395.92,1028.85C3402.19,1022.57 3405.33,1014.89 3405.33,1005.81L3405.33,746.246C3405.33,737.161 3402.19,729.482 3395.92,723.21C3389.64,716.937 3381.97,713.8 3372.88,713.8L3213.9,713.8Z"/></svg>