<?xml version="1.0" encoding="UTF-8" standalone="no"?><!DOCTYPE svg PUBLIC "-//W3C//DTD SVG 1.1//EN" "http://www.w3.org/Graphics/SVG/1.1/DTD/svg11.dtd"><svg width="100%" height="100%" viewBox="0 0 3600 626" version="1.1" xmlns="http://www.w3.org/2000/svg" xmlns:xlink="http://www.w3.org/1999/xlink" xml:space="preserve" xmlns:serif="http://www.serif.com/" style="fill-rule:evenodd;clip-rule:evenodd;stroke-linejoin:round;stroke-miterlimit:2;"><path d="M498.606,210.611C470.881,168.756 423.365,141.129 369.444,141.129C314.851,141.129 266.82,169.452 239.253,212.19C226.589,231.822 218.245,254.498 215.567,278.867C215.284,281.454 213.09,283.409 210.486,283.397C207.882,283.382 205.71,281.403 205.453,278.813C204.801,272.212 204.466,265.517 204.466,258.747C204.466,242.562 206.375,226.821 209.98,211.735C231.187,122.966 311.102,56.883 406.329,56.883C501.556,56.883 581.471,122.966 602.678,211.735C606.282,226.821 608.193,242.562 608.193,258.747C608.193,273.324 606.644,287.546 603.7,301.25C603.405,302.631 602.546,303.827 601.333,304.549C600.12,305.274 598.66,305.46 597.304,305.064C583.534,301.045 568.973,298.892 553.912,298.892C545.822,298.892 537.873,299.515 530.116,300.713C498.281,305.631 469.638,320.267 447.312,341.485C431.831,356.197 419.386,374.075 411.02,394.075C403.344,412.431 399.103,432.576 399.103,453.702L399.103,453.946C399.105,454.331 399.105,454.715 399.11,455.1C399.232,468.997 401.189,482.457 404.753,495.253C406.476,501.442 408.572,507.475 411.02,513.326C412.758,517.479 414.669,521.541 416.748,525.499C423.43,538.224 431.829,549.908 441.637,560.241C443.448,562.15 443.507,565.125 441.769,567.099C440.031,569.074 437.073,569.398 434.95,567.846C423.094,559.177 412.216,549.249 402.517,538.256C400.44,535.901 398.414,533.497 396.447,531.047C388.103,520.657 380.766,509.425 374.584,497.501C367.973,484.749 362.682,471.206 358.894,457.05C358.428,455.31 357.983,453.558 357.564,451.8C353.959,436.715 352.05,420.973 352.05,404.79C352.05,380.664 356.292,357.52 364.07,336.067C372.781,312.037 385.926,290.126 402.517,271.323C427.743,242.733 460.935,221.335 498.606,210.611ZM644.739,224.496C710.584,257.758 755.776,326.039 755.776,404.79C755.776,471.735 723.119,531.113 672.877,567.846C670.753,569.398 667.795,569.074 666.058,567.099C664.32,565.125 664.376,562.15 666.189,560.241C692.543,532.479 708.722,494.965 708.722,453.702C708.722,397.734 678.959,348.666 634.41,321.468C632.509,320.308 631.584,318.044 632.131,315.884C636.748,297.599 639.204,278.457 639.204,258.747C639.204,248.897 638.591,239.192 637.403,229.664C637.168,227.8 637.983,225.959 639.519,224.877C641.056,223.795 643.062,223.649 644.739,224.496ZM139.782,567.846C89.54,531.113 56.883,471.735 56.883,404.79C56.883,326.039 102.074,257.758 167.919,224.496C169.596,223.649 171.603,223.795 173.139,224.877C174.675,225.959 175.489,227.8 175.257,229.664C174.068,239.192 173.455,248.897 173.455,258.747C173.455,278.457 175.909,297.599 180.528,315.884C181.074,318.044 180.15,320.308 178.248,321.468C133.701,348.666 103.936,397.734 103.936,453.702C103.936,494.965 120.115,532.479 146.47,560.241C148.281,562.15 148.338,565.125 146.601,567.099C144.863,569.074 141.906,569.398 139.782,567.846ZM872.386,511.943C870.49,511.943 869.541,510.995 869.541,509.099L869.541,116.609C869.541,115.851 869.731,115.092 870.11,114.334C870.869,113.955 871.627,113.765 872.386,113.765L1068.63,113.765C1078.49,113.765 1087.97,115.472 1097.07,118.885C1109.21,123.056 1119.83,129.692 1128.93,138.793C1138.03,147.895 1144.66,158.513 1148.84,170.648C1152.25,179.749 1153.95,189.229 1153.95,199.089L1153.95,281.569C1153.95,282.327 1153.77,283.085 1153.38,283.844C1152.63,284.223 1151.87,284.413 1151.11,284.413L1125.51,284.413C1117.55,284.413 1110.82,287.162 1105.32,292.661C1099.82,298.159 1097.07,304.89 1097.07,312.854C1097.07,320.818 1099.82,327.549 1105.32,333.047C1110.82,338.546 1117.55,341.295 1125.51,341.295L1151.11,341.295C1151.87,341.295 1152.63,341.485 1153.38,341.864C1153.77,342.623 1153.95,343.381 1153.95,344.139L1153.95,509.099C1153.95,509.857 1153.77,510.616 1153.38,511.374C1152.63,511.753 1151.87,511.943 1151.11,511.943L1099.92,511.943C1098.02,511.943 1097.07,510.995 1097.07,509.099L1097.07,369.737C1097.07,361.773 1094.32,355.042 1088.82,349.543C1083.33,344.045 1076.59,341.295 1068.63,341.295L929.268,341.295C928.51,341.295 927.751,341.485 926.993,341.864C926.614,342.623 926.424,343.381 926.424,344.139L926.424,509.099C926.424,509.857 926.234,510.616 925.855,511.374C925.097,511.753 924.338,511.943 923.58,511.943L872.386,511.943ZM1068.63,170.648L929.268,170.648C928.51,170.648 927.751,170.837 926.993,171.216C926.614,171.975 926.424,172.733 926.424,173.492L926.424,281.569C926.424,282.327 926.614,283.085 926.993,283.844C927.751,284.223 928.51,284.413 929.268,284.413L1068.63,284.413C1076.59,284.413 1083.33,281.663 1088.82,276.165C1094.32,270.666 1097.07,263.935 1097.07,255.971L1097.07,199.089C1097.07,191.125 1094.32,184.394 1088.82,178.896C1083.33,173.397 1076.59,170.648 1068.63,170.648ZM1495.25,509.099C1495.25,510.995 1494.3,511.943 1492.4,511.943L1213.68,511.943C1211.79,511.943 1210.84,510.995 1210.84,509.099L1210.84,116.609C1210.84,114.713 1211.79,113.765 1213.68,113.765L1492.4,113.765C1494.3,113.765 1495.25,114.713 1495.25,116.609L1495.25,167.804C1495.25,169.7 1494.3,170.648 1492.4,170.648L1270.56,170.648C1268.67,170.648 1267.72,171.596 1267.72,173.492L1267.72,281.569C1267.72,282.327 1267.91,283.085 1268.29,283.844C1269.05,284.223 1269.81,284.413 1270.56,284.413L1435.52,284.413C1436.28,284.413 1437.04,284.602 1437.8,284.982C1438.18,285.74 1438.37,286.498 1438.37,287.257L1438.37,338.451C1438.37,339.21 1438.18,339.968 1437.8,340.726C1437.04,341.106 1436.28,341.295 1435.52,341.295L1270.56,341.295C1269.81,341.295 1269.05,341.485 1268.29,341.864C1267.91,342.623 1267.72,343.381 1267.72,344.139L1267.72,452.216C1267.72,454.112 1268.67,455.06 1270.56,455.06L1492.4,455.06C1494.3,455.06 1495.25,456.008 1495.25,457.905L1495.25,509.099ZM1611.86,341.295C1611.1,341.295 1610.34,341.485 1609.58,341.864C1609.2,342.623 1609.02,343.381 1609.02,344.139L1609.02,509.099C1609.02,509.857 1608.83,510.616 1608.45,511.374C1607.69,511.753 1606.93,511.943 1606.17,511.943L1554.98,511.943C1554.22,511.943 1553.46,511.753 1552.7,511.374C1552.32,510.616 1552.13,509.857 1552.13,509.099L1552.13,173.492C1552.13,171.596 1553.08,170.648 1554.98,170.648L1580.57,170.648C1588.54,170.648 1595.27,167.898 1600.77,162.4C1606.27,156.901 1609.02,150.17 1609.02,142.206L1609.02,116.609C1609.02,115.851 1609.2,115.092 1609.58,114.334C1610.34,113.955 1611.1,113.765 1611.86,113.765L1776.82,113.765C1777.58,113.765 1778.34,113.955 1779.09,114.334C1779.47,115.092 1779.66,115.851 1779.66,116.609L1779.66,142.206C1779.66,150.17 1782.41,156.901 1787.91,162.4C1793.41,167.898 1800.14,170.648 1808.1,170.648L1833.7,170.648C1835.6,170.648 1836.55,171.596 1836.55,173.492L1836.55,509.099C1836.55,509.857 1836.36,510.616 1835.98,511.374C1835.22,511.753 1834.46,511.943 1833.7,511.943L1782.51,511.943C1781.75,511.943 1780.99,511.753 1780.23,511.374C1779.85,510.616 1779.66,509.857 1779.66,509.099L1779.66,344.139C1779.66,343.381 1779.47,342.623 1779.09,341.864C1778.34,341.485 1777.58,341.295 1776.82,341.295L1611.86,341.295ZM1609.02,199.089L1609.02,281.569C1609.02,282.327 1609.2,283.085 1609.58,283.844C1610.34,284.223 1611.1,284.413 1611.86,284.413L1776.82,284.413C1777.58,284.413 1778.34,284.223 1779.09,283.844C1779.47,283.085 1779.66,282.327 1779.66,281.569L1779.66,199.089C1779.66,191.125 1776.91,184.394 1771.41,178.896C1765.92,173.397 1759.18,170.648 1751.22,170.648L1637.46,170.648C1629.49,170.648 1622.76,173.397 1617.26,178.896C1611.76,184.394 1609.02,191.125 1609.02,199.089ZM1896.37,455.06C1894.47,455.06 1893.52,454.112 1893.52,452.216L1893.52,199.089C1893.52,189.229 1895.23,179.749 1898.64,170.648C1902.81,158.513 1909.45,147.895 1918.55,138.793C1927.65,129.692 1938.27,123.056 1950.41,118.885C1959.51,115.472 1968.99,113.765 1978.85,113.765L2092.61,113.765C2102.47,113.765 2111.95,115.472 2121.05,118.885C2133.19,123.056 2143.81,129.692 2152.91,138.793C2162.01,147.895 2168.64,158.513 2172.82,170.648C2176.23,179.749 2177.94,189.229 2177.94,199.089L2177.94,224.686C2177.94,226.582 2176.99,227.53 2175.09,227.53L2123.9,227.53C2122,227.53 2121.05,226.582 2121.05,224.686L2121.05,199.089C2121.05,191.125 2118.3,184.394 2112.81,178.896C2107.31,173.397 2100.58,170.648 2092.61,170.648L1978.85,170.648C1970.88,170.648 1964.15,173.397 1958.65,178.896C1953.15,184.394 1950.41,191.125 1950.41,199.089L1950.41,426.619C1950.41,434.583 1953.15,441.314 1958.65,446.812C1964.15,452.311 1970.88,455.06 1978.85,455.06L2092.61,455.06C2100.58,455.06 2107.31,452.311 2112.81,446.812C2118.3,441.314 2121.05,434.583 2121.05,426.619L2121.05,401.022C2121.05,399.126 2122,398.178 2123.9,398.178L2175.09,398.178C2176.99,398.178 2177.94,399.126 2177.94,401.022L2177.94,452.216C2177.94,454.112 2176.99,455.06 2175.09,455.06L2149.49,455.06C2141.53,455.06 2134.8,457.81 2129.3,463.308C2123.8,468.807 2121.05,475.538 2121.05,483.502L2121.05,509.099C2121.05,509.857 2120.86,510.616 2120.49,511.374C2119.73,511.753 2118.97,511.943 2118.21,511.943L1953.25,511.943C1952.49,511.943 1951.73,511.753 1950.98,511.374C1950.6,510.616 1950.41,509.857 1950.41,509.099L1950.41,483.502C1950.41,475.538 1947.66,468.807 1942.16,463.308C1936.66,457.81 1929.93,455.06 1921.97,455.06L1896.37,455.06ZM2237.66,511.943C2235.77,511.943 2234.82,510.995 2234.82,509.099L2234.82,116.609C2234.82,114.713 2235.77,113.765 2237.66,113.765L2288.86,113.765C2289.62,113.765 2290.37,113.955 2291.13,114.334C2291.51,115.092 2291.7,115.851 2291.7,116.609L2291.7,452.216C2291.7,454.112 2292.65,455.06 2294.55,455.06L2459.51,455.06C2461.4,455.06 2462.35,456.008 2462.35,457.905L2462.35,509.099C2462.35,510.995 2461.4,511.943 2459.51,511.943L2237.66,511.943ZM2522.08,455.06C2520.18,455.06 2519.23,454.112 2519.23,452.216L2519.23,199.089C2519.23,189.229 2520.94,179.749 2524.35,170.648C2528.52,158.513 2535.16,147.895 2544.26,138.793C2553.36,129.692 2563.98,123.056 2576.11,118.885C2585.22,115.472 2594.7,113.765 2604.55,113.765L2718.32,113.765C2728.18,113.765 2737.66,115.472 2746.76,118.885C2758.9,123.056 2769.51,129.692 2778.62,138.793C2787.72,147.895 2794.35,158.513 2798.53,170.648C2801.94,179.749 2803.64,189.229 2803.64,199.089L2803.64,452.216C2803.64,454.112 2802.7,455.06 2800.8,455.06L2775.2,455.06C2767.24,455.06 2760.51,457.81 2755.01,463.308C2749.51,468.807 2746.76,475.538 2746.76,483.502L2746.76,509.099C2746.76,509.857 2746.57,510.616 2746.19,511.374C2745.43,511.753 2744.68,511.943 2743.92,511.943L2578.96,511.943C2578.2,511.943 2577.44,511.753 2576.68,511.374C2576.3,510.616 2576.11,509.857 2576.11,509.099L2576.11,483.502C2576.11,475.538 2573.37,468.807 2567.87,463.308C2562.37,457.81 2555.64,455.06 2547.67,455.06L2522.08,455.06ZM2577.25,428.894C2576.49,429.653 2576.3,430.411 2576.68,431.17C2577.44,437.996 2580.47,443.684 2585.78,448.235C2591.09,452.785 2597.35,455.06 2604.55,455.06L2718.32,455.06C2726.28,455.06 2733.01,452.311 2738.51,446.812C2744.01,441.314 2746.76,434.583 2746.76,426.619L2746.76,275.88C2746.76,274.743 2746.19,273.795 2745.05,273.036C2743.92,272.657 2742.97,272.847 2742.21,273.605C2733.87,281.569 2705.43,308.398 2656.89,354.094C2608.35,399.79 2581.8,424.723 2577.25,428.894ZM2718.32,170.648L2604.55,170.648C2596.59,170.648 2589.86,173.397 2584.36,178.896C2578.86,184.394 2576.11,191.125 2576.11,199.089L2576.11,349.828C2576.11,350.965 2576.68,351.913 2577.82,352.672C2578.96,353.051 2579.91,352.861 2580.66,352.103C2590.52,343.002 2619.72,316.077 2668.26,271.33C2716.8,226.582 2742.59,202.881 2745.62,200.227C2746.38,199.468 2746.76,198.71 2746.76,197.951C2746.38,190.367 2743.44,183.92 2737.95,178.611C2732.45,173.302 2725.91,170.648 2718.32,170.648ZM2888.97,455.06L2863.37,455.06C2861.47,455.06 2860.53,454.112 2860.53,452.216L2860.53,116.609C2860.53,115.851 2860.72,115.092 2861.1,114.334C2861.85,113.955 2862.61,113.765 2863.37,113.765L2914.57,113.765C2915.32,113.765 2916.08,113.955 2916.84,114.334C2917.22,115.092 2917.41,115.851 2917.41,116.609L2917.41,426.619C2917.41,434.583 2920.16,441.314 2925.66,446.812C2931.16,452.311 2937.89,455.06 2945.85,455.06L3059.62,455.06C3067.58,455.06 3074.31,452.311 3079.81,446.812C3085.31,441.314 3088.06,434.583 3088.06,426.619L3088.06,116.609C3088.06,115.851 3088.25,115.092 3088.63,114.334C3089.38,113.955 3090.14,113.765 3090.9,113.765L3142.1,113.765C3142.85,113.765 3143.61,113.955 3144.37,114.334C3144.75,115.092 3144.94,115.851 3144.94,116.609L3144.94,452.216C3144.94,454.112 3143.99,455.06 3142.1,455.06L3116.5,455.06C3108.53,455.06 3101.8,457.81 3096.31,463.308C3090.81,468.807 3088.06,475.538 3088.06,483.502L3088.06,509.099C3088.06,509.857 3087.87,510.616 3087.49,511.374C3086.73,511.753 3085.97,511.943 3085.21,511.943L2920.25,511.943C2919.49,511.943 2918.74,511.753 2917.98,511.374C2917.6,510.616 2917.41,509.857 2917.41,509.099L2917.41,483.502C2917.41,475.538 2914.66,468.807 2909.16,463.308C2903.66,457.81 2896.93,455.06 2888.97,455.06ZM3429.35,509.099C3429.35,510.995 3428.4,511.943 3426.51,511.943L3204.67,511.943C3202.77,511.943 3201.82,510.995 3201.82,509.099L3201.82,116.609C3201.82,115.851 3202.01,115.092 3202.39,114.334C3203.15,113.955 3203.91,113.765 3204.67,113.765L3400.91,113.765C3410.77,113.765 3420.25,115.472 3429.35,118.885C3441.49,123.056 3452.11,129.692 3461.21,138.793C3470.31,147.895 3476.94,158.513 3481.12,170.648C3484.53,179.749 3486.24,189.229 3486.24,199.089L3486.24,452.216C3486.24,454.112 3485.29,455.06 3483.39,455.06L3457.79,455.06C3449.83,455.06 3443.1,457.81 3437.6,463.308C3432.1,468.807 3429.35,475.538 3429.35,483.502L3429.35,509.099ZM3261.55,170.648C3259.65,170.648 3258.7,171.596 3258.7,173.492L3258.7,452.216C3258.7,454.112 3259.65,455.06 3261.55,455.06L3400.91,455.06C3408.88,455.06 3415.61,452.311 3421.1,446.812C3426.6,441.314 3429.35,434.583 3429.35,426.619L3429.35,199.089C3429.35,191.125 3426.6,184.394 3421.1,178.896C3415.61,173.397 3408.88,170.648 3400.91,170.648L3261.55,170.648Z"/></svg>