<?xml version="1.0" encoding="UTF-8" standalone="no"?><!DOCTYPE svg PUBLIC "-//W3C//DTD SVG 1.1//EN" "http://www.w3.org/Graphics/SVG/1.1/DTD/svg11.dtd"><svg width="100%" height="100%" viewBox="0 0 672 85" version="1.1" xmlns="http://www.w3.org/2000/svg" xmlns:xlink="http://www.w3.org/1999/xlink" xml:space="preserve" xmlns:serif="http://www.serif.com/" style="fill-rule:evenodd;clip-rule:evenodd;stroke-linejoin:round;stroke-miterlimit:2;"><path d="M614.659,42.361C614.546,42.361 614.439,42.316 614.359,42.237C614.28,42.157 614.235,42.049 614.235,41.937L614.235,15.828C614.235,15.716 614.28,15.608 614.359,15.528C614.439,15.449 614.546,15.404 614.659,15.404L627.713,15.404C628.388,15.404 629.037,15.52 629.639,15.733C631.279,16.314 632.58,17.615 633.161,19.255C633.374,19.857 633.49,20.505 633.49,21.18L633.49,26.533C633.49,26.767 633.3,26.957 633.066,26.957L631.564,26.957C630.502,26.957 629.639,27.82 629.639,28.882C629.639,29.945 630.502,30.808 631.564,30.808L633.066,30.808C633.3,30.808 633.49,30.998 633.49,31.232L633.49,38.086C633.49,38.32 633.3,38.51 633.066,38.51L631.564,38.51C630.502,38.51 629.639,39.373 629.639,40.436L629.639,41.937C629.639,42.049 629.594,42.157 629.515,42.237C629.435,42.316 629.327,42.361 629.215,42.361L614.659,42.361ZM629.639,36.585L629.639,32.733C629.639,31.671 628.776,30.808 627.713,30.808L618.51,30.808C618.276,30.808 618.086,30.998 618.086,31.232L618.086,38.086C618.086,38.32 618.276,38.51 618.51,38.51L627.713,38.51C628.776,38.51 629.639,37.647 629.639,36.585ZM627.713,19.255L618.51,19.255C618.276,19.255 618.086,19.445 618.086,19.679L618.086,26.533C618.086,26.767 618.276,26.957 618.51,26.957L627.713,26.957C628.776,26.957 629.639,26.094 629.639,25.032L629.639,21.18C629.639,20.118 628.776,19.255 627.713,19.255ZM570.372,42.361C570.138,42.361 569.948,42.171 569.948,41.937L569.948,15.828C569.948,15.594 570.138,15.404 570.372,15.404L573.375,15.404C573.61,15.404 573.799,15.594 573.799,15.828L573.799,38.086C573.799,38.198 573.844,38.306 573.924,38.386C574.003,38.465 574.111,38.51 574.223,38.51L586.854,38.51C586.966,38.51 587.074,38.555 587.154,38.634C587.233,38.714 587.278,38.822 587.278,38.934L587.278,41.937C587.278,42.171 587.088,42.361 586.854,42.361L570.372,42.361ZM637.341,25.031L637.341,21.18C637.341,20.505 637.457,19.857 637.67,19.255C638.251,17.615 639.552,16.314 641.192,15.733C641.794,15.52 642.442,15.404 643.117,15.404L650.82,15.404C651.494,15.404 652.143,15.52 652.745,15.733C654.385,16.314 655.686,17.615 656.267,19.255C656.48,19.857 656.596,20.505 656.596,21.18L656.596,22.682C656.596,22.916 656.406,23.106 656.172,23.106L653.169,23.106C652.935,23.106 652.745,22.916 652.745,22.682L652.745,21.18C652.745,20.118 651.882,19.255 650.82,19.255L643.117,19.255C642.055,19.255 641.192,20.118 641.192,21.18L641.192,25.032C641.192,26.094 642.055,26.957 643.117,26.957L650.819,26.957C651.494,26.957 652.143,27.073 652.745,27.286C654.385,27.867 655.686,29.168 656.267,30.808C656.48,31.41 656.596,32.058 656.596,32.734L656.596,38.086C656.596,38.32 656.406,38.51 656.172,38.51L654.67,38.51C653.608,38.51 652.745,39.373 652.745,40.436L652.745,41.937C652.745,42.171 652.555,42.361 652.321,42.361L641.616,42.361C641.382,42.361 641.192,42.171 641.192,41.937L641.192,40.436C641.192,39.373 640.329,38.51 639.266,38.51L637.765,38.51C637.531,38.51 637.341,38.32 637.341,38.086L637.341,35.083C637.341,34.849 637.531,34.659 637.765,34.659L640.768,34.659C641.002,34.659 641.192,34.849 641.192,35.083L641.192,36.585C641.192,37.647 642.055,38.51 643.117,38.51L650.819,38.51C651.882,38.51 652.745,37.647 652.745,36.585L652.745,32.733C652.745,31.671 651.882,30.808 650.82,30.808L643.117,30.808C642.442,30.808 641.794,30.692 641.192,30.479C639.552,29.898 638.251,28.597 637.67,26.957C637.457,26.355 637.341,25.707 637.341,25.031ZM595.404,30.808C595.17,30.808 594.98,30.998 594.98,31.232L594.98,41.937C594.98,42.171 594.79,42.361 594.556,42.361L591.553,42.361C591.319,42.361 591.129,42.171 591.129,41.937L591.129,19.679C591.129,19.567 591.174,19.459 591.253,19.379C591.333,19.3 591.44,19.255 591.553,19.255L593.054,19.255C594.117,19.255 594.98,18.392 594.98,17.33L594.98,15.828C594.98,15.594 595.17,15.404 595.404,15.404L606.109,15.404C606.343,15.404 606.533,15.594 606.533,15.828L606.533,17.33C606.533,18.392 607.396,19.255 608.458,19.255L609.96,19.255C610.072,19.255 610.18,19.3 610.26,19.379C610.339,19.459 610.384,19.567 610.384,19.679L610.384,41.937C610.384,42.171 610.194,42.361 609.96,42.361L606.957,42.361C606.723,42.361 606.533,42.171 606.533,41.937L606.533,31.232C606.533,30.998 606.343,30.808 606.109,30.808L595.404,30.808ZM594.98,21.18L594.98,26.533C594.98,26.767 595.17,26.957 595.404,26.957L606.109,26.957C606.343,26.957 606.533,26.767 606.533,26.533L606.533,21.18C606.533,20.118 605.67,19.255 604.607,19.255L596.905,19.255C595.843,19.255 594.98,20.118 594.98,21.18ZM470.246,46.212C470.012,46.212 469.822,46.402 469.822,46.636L469.822,68.894C469.822,69.128 469.633,69.318 469.398,69.318L462.544,69.318C462.31,69.318 462.12,69.128 462.12,68.894L462.12,15.828C462.12,15.594 462.31,15.404 462.544,15.404L469.398,15.404C469.633,15.404 469.822,15.594 469.822,15.828L469.822,38.086C469.822,38.32 470.012,38.51 470.246,38.51L492.504,38.51C492.739,38.51 492.928,38.32 492.928,38.086L492.928,15.828C492.928,15.594 493.118,15.404 493.352,15.404L500.206,15.404C500.441,15.404 500.63,15.594 500.63,15.828L500.63,68.894C500.63,69.128 500.441,69.318 500.206,69.318L493.352,69.318C493.118,69.318 492.928,69.128 492.928,68.894L492.928,46.636C492.928,46.402 492.739,46.212 492.504,46.212L470.246,46.212ZM323.908,61.616C323.674,61.616 323.484,61.426 323.484,61.192L323.484,26.957C323.484,25.607 323.716,24.311 324.143,23.106C325.304,19.825 327.906,17.223 331.186,16.062C332.391,15.636 333.687,15.404 335.037,15.404L350.441,15.404C351.791,15.404 353.088,15.636 354.292,16.062C357.573,17.223 360.175,19.825 361.336,23.106C361.762,24.311 361.994,25.607 361.994,26.957L361.994,30.384C361.994,30.618 361.804,30.808 361.57,30.808L354.716,30.808C354.482,30.808 354.292,30.618 354.292,30.384L354.292,26.957C354.292,24.832 352.567,23.106 350.441,23.106L335.037,23.106C332.912,23.106 331.186,24.832 331.186,26.957L331.186,57.765C331.186,59.89 332.912,61.616 335.037,61.616L350.441,61.616C352.567,61.616 354.292,59.89 354.292,57.765L354.292,54.338C354.292,54.104 354.482,53.914 354.716,53.914L361.57,53.914C361.804,53.914 361.994,54.104 361.994,54.338L361.994,61.192C361.994,61.426 361.804,61.616 361.57,61.616L358.143,61.616C356.018,61.616 354.292,63.342 354.292,65.467L354.292,68.894C354.292,69.128 354.102,69.318 353.868,69.318L331.61,69.318C331.376,69.318 331.186,69.128 331.186,68.894L331.186,65.467C331.186,63.342 329.461,61.616 327.335,61.616L323.908,61.616ZM431.312,23.53C431.312,23.418 431.268,23.31 431.188,23.23C431.109,23.151 431.001,23.106 430.888,23.106L416.332,23.106C416.098,23.106 415.908,22.916 415.908,22.682L415.908,15.828C415.908,15.594 416.098,15.404 416.332,15.404L453.994,15.404C454.229,15.404 454.418,15.594 454.418,15.828L454.418,22.682C454.418,22.916 454.229,23.106 453.994,23.106L439.438,23.106C439.326,23.106 439.218,23.151 439.139,23.23C439.059,23.31 439.014,23.418 439.014,23.53L439.014,68.894C439.014,69.128 438.825,69.318 438.59,69.318L431.736,69.318C431.502,69.318 431.312,69.128 431.312,68.894L431.312,23.53ZM277.272,34.659L277.272,26.957C277.272,25.607 277.504,24.311 277.931,23.106C279.092,19.825 281.694,17.223 284.974,16.062C286.179,15.636 287.475,15.404 288.825,15.404L304.229,15.404C305.579,15.404 306.876,15.636 308.08,16.062C311.361,17.223 313.963,19.825 315.124,23.106C315.55,24.311 315.782,25.607 315.782,26.957L315.782,30.384C315.782,30.618 315.592,30.808 315.358,30.808L308.504,30.808C308.27,30.808 308.08,30.618 308.08,30.384L308.08,26.957C308.08,24.832 306.355,23.106 304.229,23.106L288.825,23.106C286.7,23.106 284.974,24.832 284.974,26.957L284.974,34.659C284.974,36.784 286.7,38.51 288.825,38.51L304.229,38.51C305.579,38.51 306.876,38.742 308.08,39.168C311.361,40.329 313.963,42.931 315.124,46.212C315.55,47.417 315.782,48.713 315.782,50.063L315.782,61.192C315.782,61.426 315.592,61.616 315.358,61.616L311.931,61.616C309.806,61.616 308.08,63.342 308.08,65.467L308.08,68.894C308.08,69.128 307.89,69.318 307.656,69.318L285.398,69.318C285.164,69.318 284.974,69.128 284.974,68.894L284.974,65.467C284.974,63.342 283.249,61.616 281.123,61.616L277.696,61.616C277.462,61.616 277.272,61.426 277.272,61.192L277.272,54.338C277.272,54.104 277.462,53.914 277.696,53.914L284.55,53.914C284.784,53.914 284.974,54.104 284.974,54.338L284.974,57.765C284.974,59.89 286.7,61.616 288.825,61.616L304.229,61.616C306.355,61.616 308.08,59.89 308.08,57.765L308.08,50.063C308.08,47.938 306.355,46.212 304.229,46.212L288.825,46.212C287.475,46.212 286.179,45.98 284.974,45.554C281.694,44.393 279.092,41.791 277.931,38.51C277.504,37.305 277.272,36.009 277.272,34.659ZM546.842,68.894C546.842,69.128 546.653,69.318 546.418,69.318L508.756,69.318C508.522,69.318 508.332,69.128 508.332,68.894L508.332,15.828C508.332,15.594 508.522,15.404 508.756,15.404L546.418,15.404C546.653,15.404 546.842,15.594 546.842,15.828L546.842,22.682C546.842,22.916 546.653,23.106 546.418,23.106L516.458,23.106C516.224,23.106 516.034,23.296 516.034,23.53L516.034,38.086C516.034,38.198 516.079,38.306 516.159,38.386C516.238,38.465 516.346,38.51 516.458,38.51L538.716,38.51C538.951,38.51 539.14,38.7 539.14,38.934L539.14,45.788C539.14,46.022 538.951,46.212 538.716,46.212L516.458,46.212C516.346,46.212 516.238,46.257 516.159,46.336C516.079,46.416 516.034,46.524 516.034,46.636L516.034,61.192C516.034,61.426 516.224,61.616 516.458,61.616L546.418,61.616C546.653,61.616 546.842,61.806 546.842,62.04L546.842,68.894ZM369.767,23.213C369.721,23.143 369.696,23.061 369.696,22.978L369.696,15.828C369.696,15.594 369.886,15.404 370.12,15.404L376.974,15.404C377.208,15.404 377.398,15.594 377.398,15.828L377.398,20.528C377.398,20.612 377.423,20.694 377.47,20.764L388.599,37.419C388.677,37.536 388.81,37.607 388.951,37.607C389.093,37.607 389.225,37.536 389.304,37.419L400.433,20.764C400.479,20.694 400.504,20.612 400.504,20.528L400.504,15.828C400.504,15.594 400.694,15.404 400.928,15.404L407.782,15.404C408.016,15.404 408.206,15.594 408.206,15.828L408.206,22.978C408.206,23.061 408.182,23.143 408.135,23.213L392.873,46.105C392.827,46.175 392.802,46.257 392.802,46.34L392.802,68.894C392.802,69.128 392.612,69.318 392.378,69.318L385.524,69.318C385.29,69.318 385.1,69.128 385.1,68.894L385.1,46.34C385.1,46.257 385.076,46.175 385.029,46.105L369.767,23.213ZM23.53,61.616C23.296,61.616 23.106,61.426 23.106,61.192L23.106,26.957C23.106,25.607 23.338,24.311 23.764,23.106C24.926,19.825 27.527,17.223 30.808,16.062C32.013,15.636 33.309,15.404 34.659,15.404L50.063,15.404C51.413,15.404 52.709,15.636 53.914,16.062C57.195,17.223 59.797,19.825 60.958,23.106C61.384,24.311 61.616,25.607 61.616,26.957L61.616,30.384C61.616,30.618 61.426,30.808 61.192,30.808L54.338,30.808C54.104,30.808 53.914,30.618 53.914,30.384L53.914,26.957C53.914,24.832 52.188,23.106 50.063,23.106L34.659,23.106C32.534,23.106 30.808,24.832 30.808,26.957L30.808,57.765C30.808,59.89 32.534,61.616 34.659,61.616L50.063,61.616C52.188,61.616 53.914,59.89 53.914,57.765L53.914,54.338C53.914,54.104 54.104,53.914 54.338,53.914L61.192,53.914C61.426,53.914 61.616,54.104 61.616,54.338L61.616,61.192C61.616,61.426 61.426,61.616 61.192,61.616L57.765,61.616C55.64,61.616 53.914,63.342 53.914,65.467L53.914,68.894C53.914,69.128 53.724,69.318 53.49,69.318L31.232,69.318C30.998,69.318 30.808,69.128 30.808,68.894L30.808,65.467C30.808,63.342 29.082,61.616 26.957,61.616L23.53,61.616ZM69.742,69.318C69.508,69.318 69.318,69.128 69.318,68.894L69.318,15.828C69.318,15.594 69.508,15.404 69.742,15.404L76.596,15.404C76.83,15.404 77.02,15.594 77.02,15.828L77.02,61.192C77.02,61.426 77.21,61.616 77.444,61.616L107.404,61.616C107.638,61.616 107.828,61.806 107.828,62.04L107.828,68.894C107.828,69.128 107.638,69.318 107.404,69.318L69.742,69.318ZM165.593,61.616L162.166,61.616C161.932,61.616 161.742,61.426 161.742,61.192L161.742,15.828C161.742,15.594 161.932,15.404 162.166,15.404L169.02,15.404C169.254,15.404 169.444,15.594 169.444,15.828L169.444,57.765C169.444,59.89 171.17,61.616 173.295,61.616L188.699,61.616C190.825,61.616 192.55,59.89 192.55,57.765L192.55,15.828C192.55,15.594 192.74,15.404 192.974,15.404L199.828,15.404C200.062,15.404 200.252,15.594 200.252,15.828L200.252,61.192C200.252,61.426 200.062,61.616 199.828,61.616L196.401,61.616C194.276,61.616 192.55,63.342 192.55,65.467L192.55,68.894C192.55,69.128 192.36,69.318 192.126,69.318L169.868,69.318C169.634,69.318 169.444,69.128 169.444,68.894L169.444,65.467C169.444,63.342 167.719,61.616 165.593,61.616ZM238.762,68.894C238.762,69.128 238.572,69.318 238.338,69.318L208.378,69.318C208.144,69.318 207.954,69.128 207.954,68.894L207.954,15.828C207.954,15.594 208.144,15.404 208.378,15.404L234.911,15.404C236.261,15.404 237.557,15.636 238.762,16.062C242.043,17.223 244.645,19.825 245.806,23.106C246.232,24.311 246.464,25.607 246.464,26.957L246.464,61.192C246.464,61.426 246.274,61.616 246.04,61.616L242.613,61.616C240.488,61.616 238.762,63.342 238.762,65.467L238.762,68.894ZM216.08,23.106C215.968,23.106 215.86,23.151 215.78,23.23C215.701,23.31 215.656,23.418 215.656,23.53L215.656,61.192C215.656,61.304 215.701,61.412 215.78,61.492C215.86,61.571 215.968,61.616 216.08,61.616L234.911,61.616C237.037,61.616 238.762,59.89 238.762,57.765L238.762,26.957C238.762,24.832 237.037,23.106 234.911,23.106L216.08,23.106ZM115.954,61.616C115.72,61.616 115.53,61.426 115.53,61.192L115.53,26.957C115.53,25.607 115.762,24.311 116.189,23.106C117.35,19.825 119.952,17.223 123.232,16.062C124.437,15.636 125.733,15.404 127.083,15.404L142.487,15.404C143.837,15.404 145.133,15.636 146.338,16.062C149.619,17.223 152.221,19.825 153.382,23.106C153.808,24.311 154.04,25.607 154.04,26.957L154.04,61.192C154.04,61.426 153.85,61.616 153.616,61.616L150.189,61.616C148.064,61.616 146.338,63.342 146.338,65.467L146.338,68.894C146.338,69.128 146.148,69.318 145.914,69.318L123.656,69.318C123.422,69.318 123.232,69.128 123.232,68.894L123.232,65.467C123.232,63.342 121.507,61.616 119.381,61.616L115.954,61.616ZM142.487,23.106L127.083,23.106C124.958,23.106 123.232,24.832 123.232,26.957L123.232,47.303C123.232,47.471 123.332,47.623 123.486,47.691C123.64,47.759 123.82,47.728 123.944,47.614L146.2,27.084C146.292,27 146.342,26.88 146.337,26.756C146.229,24.724 144.545,23.106 142.487,23.106ZM123.409,58.026C123.308,58.122 123.259,58.26 123.28,58.398C123.586,60.222 125.173,61.616 127.083,61.616L142.487,61.616C144.613,61.616 146.338,59.89 146.338,57.765L146.338,37.432C146.338,37.263 146.238,37.11 146.082,37.043C145.927,36.976 145.747,37.007 145.624,37.123L123.409,58.026Z"/></svg>