<?xml version="1.0" encoding="UTF-8" standalone="no"?><!DOCTYPE svg PUBLIC "-//W3C//DTD SVG 1.1//EN" "http://www.w3.org/Graphics/SVG/1.1/DTD/svg11.dtd"><svg width="100%" height="100%" viewBox="0 0 628 210" version="1.1" xmlns="http://www.w3.org/2000/svg" xmlns:xlink="http://www.w3.org/1999/xlink" xml:space="preserve" xmlns:serif="http://www.serif.com/" style="fill-rule:evenodd;clip-rule:evenodd;stroke-linejoin:round;stroke-miterlimit:2;"><g transform="matrix(1,0,0,1,-39.2,-26.1333)"><path d="M594.957,189.467C594.723,189.467 594.533,189.277 594.533,189.043L594.533,144.157C594.533,143.923 594.723,143.733 594.957,143.733L617.4,143.733C618.545,143.733 619.645,143.93 620.667,144.292C623.449,145.277 625.657,147.484 626.641,150.267C627.003,151.289 627.2,152.388 627.2,153.533L627.2,162.909C627.2,163.144 627.01,163.333 626.776,163.333L623.933,163.333C622.13,163.333 620.667,164.797 620.667,166.6C620.667,168.403 622.13,169.867 623.933,169.867L626.776,169.867C627.01,169.867 627.2,170.056 627.2,170.291L627.2,182.509C627.2,182.743 627.01,182.933 626.776,182.933L623.933,182.933C622.13,182.933 620.667,184.397 620.667,186.2L620.667,189.043C620.667,189.277 620.477,189.467 620.243,189.467L594.957,189.467ZM620.667,179.667L620.667,173.133C620.667,171.33 619.203,169.867 617.4,169.867L601.491,169.867C601.378,169.867 601.27,169.911 601.191,169.991C601.111,170.07 601.067,170.178 601.067,170.291L601.067,182.509C601.067,182.622 601.111,182.73 601.191,182.809C601.27,182.889 601.378,182.933 601.491,182.933L617.4,182.933C619.203,182.933 620.667,181.47 620.667,179.667ZM617.4,150.267L601.491,150.267C601.378,150.267 601.27,150.311 601.191,150.391C601.111,150.47 601.067,150.578 601.067,150.691L601.067,162.909C601.067,163.022 601.111,163.13 601.191,163.209C601.27,163.289 601.378,163.333 601.491,163.333L617.4,163.333C619.203,163.333 620.667,161.87 620.667,160.067L620.667,153.533C620.667,151.73 619.203,150.267 617.4,150.267ZM519.824,189.467C519.59,189.467 519.4,189.277 519.4,189.043L519.4,144.157C519.4,143.923 519.59,143.733 519.824,143.733L525.509,143.733C525.744,143.733 525.933,143.923 525.933,144.157L525.933,182.509C525.933,182.744 526.123,182.933 526.357,182.933L548.376,182.933C548.61,182.933 548.8,183.123 548.8,183.357L548.8,189.043C548.8,189.277 548.61,189.467 548.376,189.467L519.824,189.467ZM633.733,160.067L633.733,153.533C633.733,152.388 633.93,151.289 634.292,150.267C635.277,147.484 637.484,145.277 640.267,144.292C641.289,143.93 642.388,143.733 643.533,143.733L656.6,143.733C657.745,143.733 658.845,143.93 659.867,144.292C662.649,145.277 664.857,147.484 665.841,150.267C666.203,151.289 666.4,152.388 666.4,153.533L666.4,156.376C666.4,156.61 666.21,156.8 665.976,156.8L660.291,156.8C660.056,156.8 659.867,156.61 659.867,156.376L659.867,153.533C659.867,151.73 658.403,150.267 656.6,150.267L643.533,150.267C641.73,150.267 640.267,151.73 640.267,153.533L640.267,160.067C640.267,161.87 641.73,163.333 643.533,163.333L656.6,163.333C657.745,163.333 658.845,163.53 659.867,163.892C662.649,164.877 664.857,167.084 665.841,169.867C666.203,170.889 666.4,171.988 666.4,173.133L666.4,182.509C666.4,182.744 666.21,182.933 665.976,182.933L663.133,182.933C661.33,182.933 659.867,184.397 659.867,186.2L659.867,189.043C659.867,189.277 659.677,189.467 659.443,189.467L640.691,189.467C640.456,189.467 640.267,189.277 640.267,189.043L640.267,186.2C640.267,184.397 638.803,182.933 637,182.933L634.157,182.933C633.923,182.933 633.733,182.744 633.733,182.509L633.733,176.824C633.733,176.59 633.923,176.4 634.157,176.4L639.843,176.4C640.077,176.4 640.267,176.59 640.267,176.824L640.267,179.667C640.267,181.47 641.73,182.933 643.533,182.933L656.6,182.933C658.403,182.933 659.867,181.47 659.867,179.667L659.867,173.133C659.867,171.33 658.403,169.867 656.6,169.867L643.533,169.867C642.388,169.867 641.289,169.67 640.267,169.308C637.484,168.323 635.277,166.116 634.292,163.333C633.93,162.311 633.733,161.212 633.733,160.067ZM562.291,169.867C562.178,169.867 562.07,169.911 561.991,169.991C561.911,170.07 561.867,170.178 561.867,170.291L561.867,189.043C561.867,189.277 561.677,189.467 561.443,189.467L555.757,189.467C555.523,189.467 555.333,189.277 555.333,189.043L555.333,150.691C555.333,150.456 555.523,150.267 555.757,150.267L558.6,150.267C560.403,150.267 561.867,148.803 561.867,147L561.867,144.157C561.867,143.923 562.056,143.733 562.291,143.733L581.043,143.733C581.277,143.733 581.467,143.923 581.467,144.157L581.467,147C581.467,148.803 582.93,150.267 584.733,150.267L587.576,150.267C587.81,150.267 588,150.456 588,150.691L588,189.043C588,189.277 587.81,189.467 587.576,189.467L581.891,189.467C581.656,189.467 581.467,189.277 581.467,189.043L581.467,170.291C581.467,170.178 581.422,170.07 581.342,169.991C581.263,169.911 581.155,169.867 581.043,169.867L562.291,169.867ZM561.867,153.533L561.867,162.909C561.867,163.022 561.911,163.13 561.991,163.209C562.07,163.289 562.178,163.333 562.291,163.333L581.043,163.333C581.155,163.333 581.263,163.289 581.342,163.209C581.422,163.13 581.467,163.022 581.467,162.909L581.467,153.533C581.467,151.73 580.003,150.267 578.2,150.267L565.133,150.267C563.33,150.267 561.867,151.73 561.867,153.533ZM366.291,196C366.056,196 365.867,196.19 365.867,196.424L365.867,234.776C365.867,235.01 365.677,235.2 365.443,235.2L353.224,235.2C353.112,235.2 353.004,235.155 352.924,235.076C352.845,234.996 352.8,234.888 352.8,234.776L352.8,144.157C352.8,144.045 352.845,143.937 352.924,143.857C353.004,143.778 353.112,143.733 353.224,143.733L365.443,143.733C365.677,143.733 365.867,143.923 365.867,144.157L365.867,182.509C365.867,182.744 366.056,182.933 366.291,182.933L404.643,182.933C404.877,182.933 405.067,182.744 405.067,182.509L405.067,144.157C405.067,143.923 405.256,143.733 405.491,143.733L417.709,143.733C417.822,143.733 417.93,143.778 418.009,143.857C418.089,143.937 418.133,144.045 418.133,144.157L418.133,234.776C418.133,234.888 418.089,234.996 418.009,235.076C417.93,235.155 417.822,235.2 417.709,235.2L405.491,235.2C405.256,235.2 405.067,235.01 405.067,234.776L405.067,196.424C405.067,196.19 404.877,196 404.643,196L366.291,196ZM39.624,104.533C39.39,104.533 39.2,104.343 39.2,104.109L39.2,45.733C39.2,43.443 39.594,41.244 40.317,39.2C42.287,33.634 46.701,29.22 52.267,27.25C54.311,26.527 56.51,26.133 58.8,26.133L84.933,26.133C87.224,26.133 89.423,26.527 91.467,27.25C97.032,29.22 101.447,33.634 103.416,39.2C104.14,41.244 104.533,43.443 104.533,45.733L104.533,51.843C104.533,52.077 104.344,52.267 104.109,52.267L91.891,52.267C91.656,52.267 91.467,52.077 91.467,51.843L91.467,45.733C91.467,42.127 88.539,39.2 84.933,39.2L58.8,39.2C55.194,39.2 52.267,42.127 52.267,45.733L52.267,98C52.267,101.606 55.194,104.533 58.8,104.533L84.933,104.533C88.539,104.533 91.467,101.606 91.467,98L91.467,91.891C91.467,91.656 91.656,91.467 91.891,91.467L104.109,91.467C104.222,91.467 104.33,91.511 104.409,91.591C104.489,91.67 104.533,91.778 104.533,91.891L104.533,104.109C104.533,104.343 104.344,104.533 104.109,104.533L98,104.533C94.394,104.533 91.467,107.461 91.467,111.067L91.467,117.176C91.467,117.41 91.277,117.6 91.043,117.6L52.691,117.6C52.456,117.6 52.267,117.41 52.267,117.176L52.267,111.067C52.267,107.461 49.339,104.533 45.733,104.533L39.624,104.533ZM118.024,222.133C117.79,222.133 117.6,221.943 117.6,221.709L117.6,163.333C117.6,161.043 117.994,158.844 118.717,156.8C120.687,151.234 125.101,146.82 130.667,144.85C132.711,144.127 134.91,143.733 137.2,143.733L163.333,143.733C165.624,143.733 167.823,144.127 169.867,144.85C175.432,146.82 179.847,151.234 181.816,156.8C182.54,158.844 182.933,161.043 182.933,163.333L182.933,169.443C182.933,169.677 182.744,169.867 182.509,169.867L170.291,169.867C170.057,169.867 169.867,169.677 169.867,169.443L169.867,163.333C169.867,159.727 166.939,156.8 163.333,156.8L137.2,156.8C133.594,156.8 130.667,159.727 130.667,163.333L130.667,215.6C130.667,219.206 133.594,222.133 137.2,222.133L163.333,222.133C166.939,222.133 169.867,219.206 169.867,215.6L169.867,209.491C169.867,209.256 170.057,209.067 170.291,209.067L182.509,209.067C182.622,209.067 182.73,209.111 182.809,209.191C182.889,209.27 182.933,209.378 182.933,209.491L182.933,221.709C182.933,221.943 182.744,222.133 182.509,222.133L176.4,222.133C172.794,222.133 169.867,225.061 169.867,228.667L169.867,234.776C169.867,235.01 169.677,235.2 169.443,235.2L131.091,235.2C130.856,235.2 130.667,235.01 130.667,234.776L130.667,228.667C130.667,225.061 127.739,222.133 124.133,222.133L118.024,222.133ZM118.024,117.6C117.79,117.6 117.6,117.41 117.6,117.176L117.6,26.557C117.6,26.445 117.645,26.337 117.724,26.257C117.804,26.178 117.912,26.133 118.024,26.133L130.243,26.133C130.355,26.133 130.463,26.178 130.542,26.257C130.622,26.337 130.667,26.445 130.667,26.557L130.667,104.109C130.667,104.343 130.856,104.533 131.091,104.533L182.509,104.533C182.744,104.533 182.933,104.723 182.933,104.957L182.933,117.176C182.933,117.288 182.889,117.396 182.809,117.476C182.73,117.555 182.622,117.6 182.509,117.6L118.024,117.6ZM300.533,157.224C300.533,157.112 300.489,157.004 300.409,156.924C300.33,156.845 300.222,156.8 300.109,156.8L274.824,156.8C274.712,156.8 274.604,156.755 274.524,156.676C274.445,156.596 274.4,156.488 274.4,156.376L274.4,144.157C274.4,144.045 274.445,143.937 274.524,143.858C274.604,143.778 274.712,143.733 274.824,143.733L339.309,143.733C339.422,143.733 339.53,143.778 339.609,143.858C339.689,143.937 339.733,144.045 339.733,144.157L339.733,156.376C339.733,156.488 339.689,156.596 339.609,156.676C339.53,156.755 339.422,156.8 339.309,156.8L314.024,156.8C313.912,156.8 313.804,156.845 313.724,156.924C313.645,157.004 313.6,157.112 313.6,157.224L313.6,234.776C313.6,234.888 313.555,234.996 313.476,235.076C313.396,235.155 313.288,235.2 313.176,235.2L300.957,235.2C300.845,235.2 300.737,235.155 300.658,235.076C300.578,234.996 300.533,234.888 300.533,234.776L300.533,157.224ZM280.933,104.533L274.824,104.533C274.59,104.533 274.4,104.343 274.4,104.109L274.4,26.557C274.4,26.445 274.445,26.337 274.524,26.257C274.604,26.178 274.712,26.133 274.824,26.133L287.043,26.133C287.155,26.133 287.263,26.178 287.342,26.257C287.422,26.337 287.467,26.445 287.467,26.557L287.467,98C287.467,101.606 290.394,104.533 294,104.533L320.133,104.533C323.739,104.533 326.667,101.606 326.667,98L326.667,26.557C326.667,26.445 326.711,26.337 326.791,26.257C326.87,26.178 326.978,26.133 327.091,26.133L339.309,26.133C339.422,26.133 339.53,26.178 339.609,26.257C339.689,26.337 339.733,26.445 339.733,26.557L339.733,104.109C339.733,104.343 339.544,104.533 339.309,104.533L333.2,104.533C329.594,104.533 326.667,107.461 326.667,111.067L326.667,117.176C326.667,117.41 326.477,117.6 326.243,117.6L287.891,117.6C287.656,117.6 287.467,117.41 287.467,117.176L287.467,111.067C287.467,107.461 284.539,104.533 280.933,104.533ZM39.2,176.4L39.2,163.333C39.2,161.043 39.594,158.844 40.317,156.8C42.287,151.234 46.701,146.82 52.267,144.85C54.311,144.127 56.51,143.733 58.8,143.733L84.933,143.733C87.224,143.733 89.423,144.127 91.467,144.85C97.032,146.82 101.447,151.234 103.416,156.8C104.14,158.844 104.533,161.043 104.533,163.333L104.533,169.443C104.533,169.677 104.344,169.867 104.109,169.867L91.891,169.867C91.656,169.867 91.467,169.677 91.467,169.443L91.467,163.333C91.467,159.727 88.539,156.8 84.933,156.8L58.8,156.8C55.194,156.8 52.267,159.727 52.267,163.333L52.267,176.4C52.267,180.006 55.194,182.933 58.8,182.933L84.933,182.933C87.224,182.933 89.423,183.327 91.467,184.05C97.032,186.02 101.447,190.434 103.416,196C104.14,198.044 104.533,200.243 104.533,202.533L104.533,221.709C104.533,221.944 104.344,222.133 104.109,222.133L98,222.133C94.394,222.133 91.467,225.061 91.467,228.667L91.467,234.776C91.467,235.01 91.277,235.2 91.043,235.2L52.691,235.2C52.456,235.2 52.267,235.01 52.267,234.776L52.267,228.667C52.267,225.061 49.339,222.133 45.733,222.133L39.624,222.133C39.39,222.133 39.2,221.943 39.2,221.709L39.2,209.491C39.2,209.378 39.245,209.27 39.324,209.191C39.404,209.111 39.512,209.067 39.624,209.067L51.843,209.067C52.077,209.067 52.267,209.256 52.267,209.491L52.267,215.6C52.267,219.206 55.194,222.133 58.8,222.133L84.933,222.133C88.539,222.133 91.467,219.206 91.467,215.6L91.467,202.533C91.467,198.927 88.539,196 84.933,196L58.8,196C56.51,196 54.311,195.606 52.267,194.883C46.701,192.913 42.287,188.499 40.317,182.933C39.594,180.889 39.2,178.69 39.2,176.4ZM496.533,234.776C496.533,234.888 496.489,234.996 496.409,235.076C496.33,235.155 496.222,235.2 496.109,235.2L431.624,235.2C431.39,235.2 431.2,235.01 431.2,234.776L431.2,144.157C431.2,143.923 431.39,143.733 431.624,143.733L496.109,143.733C496.222,143.733 496.33,143.778 496.409,143.858C496.489,143.937 496.533,144.045 496.533,144.157L496.533,156.376C496.533,156.61 496.344,156.8 496.109,156.8L444.691,156.8C444.456,156.8 444.267,156.99 444.267,157.224L444.267,182.509C444.267,182.744 444.456,182.933 444.691,182.933L483.043,182.933C483.277,182.933 483.467,183.123 483.467,183.357L483.467,195.576C483.467,195.81 483.277,196 483.043,196L444.691,196C444.456,196 444.267,196.19 444.267,196.424L444.267,221.709C444.267,221.944 444.456,222.133 444.691,222.133L496.109,222.133C496.344,222.133 496.533,222.323 496.533,222.557L496.533,234.776ZM405.067,117.176C405.067,117.41 404.877,117.6 404.643,117.6L353.224,117.6C352.99,117.6 352.8,117.41 352.8,117.176L352.8,26.557C352.8,26.323 352.99,26.133 353.224,26.133L398.533,26.133C400.824,26.133 403.023,26.527 405.067,27.25C410.632,29.22 415.047,33.634 417.016,39.2C417.74,41.244 418.133,43.443 418.133,45.733L418.133,104.109C418.133,104.343 417.944,104.533 417.709,104.533L411.6,104.533C407.994,104.533 405.067,107.461 405.067,111.067L405.067,117.176ZM366.291,39.2C366.056,39.2 365.867,39.39 365.867,39.624L365.867,104.109C365.867,104.344 366.056,104.533 366.291,104.533L398.533,104.533C402.139,104.533 405.067,101.606 405.067,98L405.067,45.733C405.067,42.127 402.139,39.2 398.533,39.2L366.291,39.2ZM196.071,156.907C196.025,156.837 196,156.755 196,156.672L196,144.157C196,144.045 196.045,143.937 196.124,143.857C196.204,143.778 196.312,143.733 196.424,143.733L208.643,143.733C208.755,143.733 208.863,143.778 208.942,143.857C209.022,143.937 209.067,144.045 209.067,144.157L209.067,152.516C209.067,152.6 209.092,152.682 209.138,152.752L228.314,181.449C228.393,181.567 228.525,181.637 228.667,181.637C228.808,181.637 228.941,181.567 229.019,181.449L248.195,152.752C248.242,152.682 248.267,152.6 248.267,152.516L248.267,144.157C248.267,144.045 248.311,143.937 248.391,143.857C248.47,143.778 248.578,143.733 248.691,143.733L260.909,143.733C261.022,143.733 261.13,143.778 261.209,143.857C261.289,143.937 261.333,144.045 261.333,144.157L261.333,156.672C261.333,156.755 261.309,156.837 261.262,156.907L235.271,195.893C235.225,195.963 235.2,196.045 235.2,196.128L235.2,234.776C235.2,235.01 235.01,235.2 234.776,235.2L222.557,235.2C222.323,235.2 222.133,235.01 222.133,234.776L222.133,196.128C222.133,196.045 222.109,195.963 222.062,195.893L196.071,156.907ZM196.424,104.533C196.19,104.533 196,104.343 196,104.109L196,45.733C196,43.443 196.394,41.244 197.117,39.2C199.087,33.634 203.501,29.22 209.067,27.25C211.111,26.527 213.31,26.133 215.6,26.133L241.733,26.133C244.024,26.133 246.223,26.527 248.267,27.25C253.832,29.22 258.247,33.634 260.216,39.2C260.94,41.244 261.333,43.443 261.333,45.733L261.333,104.109C261.333,104.343 261.144,104.533 260.909,104.533L254.8,104.533C251.194,104.533 248.267,107.461 248.267,111.067L248.267,117.176C248.267,117.41 248.077,117.6 247.843,117.6L209.491,117.6C209.256,117.6 209.067,117.41 209.067,117.176L209.067,111.067C209.067,107.461 206.139,104.533 202.533,104.533L196.424,104.533ZM209.258,98.546C209.158,98.64 209.11,98.775 209.127,98.91C209.573,102.086 212.303,104.533 215.6,104.533L241.733,104.533C245.339,104.533 248.267,101.606 248.267,98L248.267,62.821C248.267,62.652 248.166,62.499 248.011,62.432C247.856,62.365 247.675,62.396 247.552,62.512L209.258,98.546ZM241.733,39.2L215.6,39.2C211.994,39.2 209.067,42.127 209.067,45.733L209.067,80.924C209.067,81.093 209.166,81.245 209.321,81.313C209.475,81.38 209.654,81.35 209.778,81.236L248.129,45.86C248.219,45.778 248.269,45.661 248.266,45.539C248.161,42.023 245.274,39.2 241.733,39.2Z"/></g></svg>