<?xml version="1.0" encoding="UTF-8" standalone="no"?><!DOCTYPE svg PUBLIC "-//W3C//DTD SVG 1.1//EN" "http://www.w3.org/Graphics/SVG/1.1/DTD/svg11.dtd"><svg width="100%" height="100%" viewBox="0 0 672 386" version="1.1" xmlns="http://www.w3.org/2000/svg" xmlns:xlink="http://www.w3.org/1999/xlink" xml:space="preserve" xmlns:serif="http://www.serif.com/" style="fill-rule:evenodd;clip-rule:evenodd;stroke-linejoin:round;stroke-miterlimit:2;"><path d="M143.839,352.39C143.604,352.39 143.415,352.2 143.415,351.966L143.415,295.448C143.415,295.214 143.604,295.024 143.839,295.024L172.098,295.024C173.534,295.024 174.913,295.271 176.195,295.725C179.686,296.96 182.454,299.729 183.69,303.22C184.143,304.501 184.39,305.881 184.39,307.317L184.39,319.186C184.39,319.42 184.2,319.61 183.966,319.61L180.293,319.61C178.031,319.61 176.195,321.446 176.195,323.707C176.195,325.969 178.031,327.805 180.293,327.805L183.966,327.805C184.2,327.805 184.39,327.995 184.39,328.229L184.39,343.771C184.39,344.005 184.2,344.195 183.966,344.195L180.293,344.195C178.031,344.195 176.195,346.031 176.195,348.293L176.195,351.966C176.195,352.2 176.005,352.39 175.771,352.39L143.839,352.39ZM172.098,303.22L152.034,303.22C151.921,303.22 151.813,303.264 151.734,303.344C151.654,303.423 151.61,303.531 151.61,303.643L151.61,319.186C151.61,319.298 151.654,319.406 151.734,319.486C151.813,319.565 151.921,319.61 152.034,319.61L172.098,319.61C174.359,319.61 176.195,317.774 176.195,315.512L176.195,307.317C176.195,305.056 174.359,303.22 172.098,303.22ZM176.195,340.098L176.195,331.902C176.195,329.641 174.359,327.805 172.098,327.805L152.034,327.805C151.921,327.805 151.813,327.85 151.734,327.929C151.654,328.009 151.61,328.116 151.61,328.229L151.61,343.771C151.61,343.884 151.654,343.991 151.734,344.071C151.813,344.15 151.921,344.195 152.034,344.195L172.098,344.195C174.359,344.195 176.195,342.359 176.195,340.098ZM49.595,352.39C49.482,352.39 49.374,352.346 49.295,352.266C49.215,352.187 49.171,352.079 49.171,351.966L49.171,295.448C49.171,295.336 49.215,295.228 49.295,295.149C49.374,295.069 49.482,295.024 49.595,295.024L56.942,295.024C57.054,295.024 57.162,295.069 57.242,295.149C57.321,295.228 57.366,295.336 57.366,295.448L57.366,343.771C57.366,343.884 57.411,343.991 57.49,344.071C57.57,344.15 57.677,344.195 57.79,344.195L85.625,344.195C85.859,344.195 86.049,344.385 86.049,344.619L86.049,351.966C86.049,352.079 86.004,352.187 85.925,352.266C85.845,352.346 85.737,352.39 85.625,352.39L49.595,352.39ZM192.585,315.512L192.585,307.317C192.585,305.881 192.832,304.501 193.286,303.22C194.521,299.729 197.29,296.96 200.78,295.725C202.062,295.271 203.442,295.024 204.878,295.024L221.268,295.024C222.705,295.024 224.084,295.271 225.366,295.725C228.856,296.96 231.625,299.729 232.86,303.22C233.314,304.501 233.561,305.881 233.561,307.317L233.561,310.991C233.561,311.225 233.371,311.415 233.137,311.415L225.79,311.415C225.556,311.415 225.366,311.225 225.366,310.991L225.366,307.317C225.366,305.056 223.53,303.22 221.268,303.22L204.878,303.22C202.617,303.22 200.781,305.056 200.78,307.317L200.78,315.512C200.78,317.774 202.617,319.61 204.878,319.61L221.268,319.61C222.705,319.61 224.084,319.857 225.366,320.31C228.856,321.546 231.625,324.314 232.86,327.805C233.314,329.087 233.561,330.466 233.561,331.902L233.561,343.771C233.561,344.005 233.371,344.195 233.137,344.195L229.463,344.195C227.202,344.195 225.366,346.031 225.366,348.293L225.366,351.966C225.366,352.2 225.176,352.39 224.942,352.39L201.204,352.39C200.97,352.39 200.78,352.2 200.78,351.966L200.78,348.293C200.78,346.031 198.944,344.195 196.683,344.195L193.009,344.195C192.775,344.195 192.585,344.005 192.585,343.771L192.585,336.424C192.585,336.312 192.63,336.204 192.71,336.124C192.789,336.045 192.897,336 193.009,336L200.357,336C200.591,336 200.78,336.19 200.78,336.424L200.78,340.098C200.781,342.359 202.617,344.195 204.878,344.195L221.268,344.195C223.53,344.195 225.366,342.359 225.366,340.098L225.366,331.902C225.366,329.641 223.53,327.805 221.268,327.805L204.878,327.805C203.442,327.805 202.062,327.558 200.78,327.104C197.29,325.869 194.521,323.1 193.286,319.61C192.832,318.328 192.585,316.949 192.585,315.512ZM102.863,327.805C102.751,327.805 102.643,327.85 102.563,327.929C102.484,328.009 102.439,328.116 102.439,328.229L102.439,351.966C102.439,352.079 102.394,352.187 102.315,352.266C102.235,352.346 102.128,352.39 102.015,352.39L94.668,352.39C94.555,352.39 94.448,352.346 94.368,352.266C94.289,352.187 94.244,352.079 94.244,351.966L94.244,303.643C94.244,303.409 94.434,303.22 94.668,303.22L98.341,303.22C100.603,303.219 102.439,301.383 102.439,299.122L102.439,295.448C102.439,295.214 102.629,295.024 102.863,295.024L126.6,295.024C126.835,295.024 127.024,295.214 127.024,295.448L127.024,299.122C127.024,301.383 128.86,303.219 131.122,303.22L134.796,303.22C135.03,303.22 135.22,303.409 135.22,303.643L135.22,351.966C135.22,352.079 135.175,352.187 135.095,352.266C135.016,352.346 134.908,352.39 134.796,352.39L127.448,352.39C127.336,352.39 127.228,352.346 127.149,352.266C127.069,352.187 127.024,352.079 127.024,351.966L127.024,328.229C127.024,328.116 126.98,328.009 126.9,327.929C126.821,327.85 126.713,327.805 126.6,327.805L102.863,327.805ZM102.439,307.317L102.439,319.186C102.439,319.42 102.629,319.61 102.863,319.61L126.6,319.61C126.835,319.61 127.024,319.42 127.024,319.186L127.024,307.317C127.024,305.056 125.188,303.22 122.927,303.22L106.537,303.22C104.275,303.22 102.439,305.056 102.439,307.317ZM459.351,229.463C459.238,229.463 459.131,229.508 459.051,229.588C458.971,229.667 458.927,229.775 458.927,229.887L458.927,278.21C458.927,278.323 458.882,278.43 458.803,278.51C458.723,278.589 458.615,278.634 458.503,278.634L442.961,278.634C442.848,278.634 442.74,278.589 442.661,278.51C442.581,278.43 442.537,278.323 442.537,278.21L442.537,164.326C442.537,164.214 442.581,164.106 442.661,164.027C442.74,163.947 442.848,163.902 442.961,163.902L458.503,163.902C458.615,163.902 458.723,163.947 458.803,164.027C458.882,164.106 458.927,164.214 458.927,164.326L458.927,212.649C458.927,212.762 458.971,212.869 459.051,212.949C459.131,213.029 459.238,213.073 459.351,213.073L507.674,213.073C507.786,213.073 507.894,213.029 507.973,212.949C508.053,212.869 508.098,212.762 508.098,212.649L508.098,164.326C508.098,164.214 508.142,164.106 508.222,164.027C508.301,163.947 508.409,163.902 508.522,163.902L524.064,163.902C524.176,163.902 524.284,163.947 524.364,164.027C524.443,164.106 524.488,164.214 524.488,164.326L524.488,278.21C524.488,278.323 524.443,278.43 524.364,278.51C524.284,278.589 524.176,278.634 524.064,278.634L508.522,278.634C508.409,278.634 508.301,278.589 508.222,278.51C508.142,278.43 508.098,278.323 508.098,278.21L508.098,229.887C508.098,229.775 508.053,229.667 507.973,229.588C507.894,229.508 507.786,229.463 507.674,229.463L459.351,229.463ZM147.936,262.244C147.702,262.244 147.512,262.054 147.512,261.82L147.512,188.488C147.512,185.615 148.006,182.856 148.913,180.293C151.384,173.311 156.921,167.774 163.902,165.304C166.466,164.396 169.225,163.902 172.098,163.902L204.878,163.902C207.751,163.902 210.509,164.396 213.073,165.304C220.054,167.774 225.591,173.311 228.062,180.293C228.97,182.856 229.463,185.615 229.463,188.488L229.463,196.259C229.463,196.371 229.419,196.479 229.339,196.559C229.26,196.638 229.152,196.683 229.039,196.683L213.497,196.683C213.385,196.683 213.277,196.638 213.197,196.559C213.118,196.479 213.073,196.371 213.073,196.259L213.073,188.488C213.073,183.965 209.401,180.293 204.878,180.293L172.098,180.293C167.575,180.293 163.902,183.965 163.902,188.488L163.902,254.049C163.902,258.572 167.575,262.244 172.098,262.244L204.878,262.244C209.401,262.244 213.073,258.572 213.073,254.049L213.073,246.278C213.073,246.165 213.118,246.057 213.197,245.978C213.277,245.898 213.385,245.854 213.497,245.854L229.039,245.854C229.152,245.854 229.26,245.898 229.339,245.978C229.419,246.057 229.463,246.165 229.463,246.278L229.463,261.82C229.463,261.932 229.419,262.04 229.339,262.12C229.26,262.199 229.152,262.244 229.039,262.244L221.268,262.244C216.745,262.244 213.073,265.916 213.073,270.439L213.073,278.21C213.073,278.323 213.029,278.43 212.949,278.51C212.869,278.589 212.762,278.634 212.649,278.634L164.326,278.634C164.214,278.634 164.106,278.589 164.027,278.51C163.947,278.43 163.902,278.323 163.902,278.21L163.902,270.439C163.902,265.916 160.23,262.244 155.707,262.244L147.936,262.244ZM376.976,180.717C376.976,180.482 376.786,180.293 376.552,180.293L344.619,180.293C344.385,180.293 344.195,180.103 344.195,179.869L344.195,164.326C344.195,164.092 344.385,163.902 344.619,163.902L425.722,163.902C425.957,163.902 426.146,164.092 426.146,164.326L426.146,179.869C426.146,180.103 425.957,180.293 425.722,180.293L393.79,180.293C393.556,180.293 393.366,180.482 393.366,180.717L393.366,278.21C393.366,278.444 393.176,278.634 392.942,278.634L377.4,278.634C377.165,278.634 376.976,278.444 376.976,278.21L376.976,180.717ZM49.171,204.878L49.171,188.488C49.171,185.615 49.665,182.856 50.572,180.293C53.043,173.311 58.58,167.774 65.561,165.304C68.125,164.396 70.883,163.902 73.756,163.902L106.537,163.902C109.41,163.902 112.168,164.396 114.732,165.304C121.713,167.774 127.25,173.311 129.721,180.293C130.628,182.856 131.122,185.615 131.122,188.488L131.122,196.259C131.122,196.371 131.077,196.479 130.998,196.559C130.918,196.638 130.81,196.683 130.698,196.683L115.156,196.683C115.043,196.683 114.935,196.638 114.856,196.559C114.776,196.479 114.732,196.371 114.732,196.259L114.732,188.488C114.732,183.965 111.06,180.293 106.537,180.293L73.756,180.293C69.233,180.293 65.561,183.965 65.561,188.488L65.561,204.878C65.561,209.401 69.233,213.073 73.756,213.073L106.537,213.073C109.41,213.073 112.168,213.567 114.732,214.474C121.713,216.945 127.25,222.482 129.721,229.463C130.628,232.027 131.122,234.786 131.122,237.659L131.122,261.82C131.122,261.932 131.077,262.04 130.998,262.12C130.918,262.199 130.81,262.244 130.698,262.244L122.927,262.244C118.404,262.244 114.732,265.916 114.732,270.439L114.732,278.21C114.732,278.323 114.687,278.43 114.608,278.51C114.528,278.589 114.42,278.634 114.308,278.634L65.985,278.634C65.873,278.634 65.765,278.589 65.685,278.51C65.606,278.43 65.561,278.323 65.561,278.21L65.561,270.439C65.561,265.916 61.889,262.244 57.366,262.244L49.595,262.244C49.482,262.244 49.374,262.199 49.295,262.12C49.215,262.04 49.171,261.932 49.171,261.82L49.171,246.278C49.171,246.165 49.215,246.057 49.295,245.978C49.374,245.898 49.482,245.854 49.595,245.854L65.137,245.854C65.249,245.854 65.357,245.898 65.437,245.978C65.516,246.057 65.561,246.165 65.561,246.278L65.561,254.049C65.561,258.572 69.233,262.244 73.756,262.244L106.537,262.244C111.06,262.244 114.732,258.572 114.732,254.049L114.732,237.659C114.732,233.136 111.06,229.463 106.537,229.463L73.756,229.463C70.883,229.463 68.125,228.97 65.561,228.062C58.58,225.591 53.043,220.054 50.572,213.073C49.665,210.509 49.171,207.751 49.171,204.878ZM622.829,278.21C622.829,278.444 622.639,278.634 622.405,278.634L541.302,278.634C541.068,278.634 540.878,278.444 540.878,278.21L540.878,164.326C540.878,164.092 541.068,163.902 541.302,163.902L622.405,163.902C622.639,163.902 622.829,164.092 622.829,164.326L622.829,179.869C622.829,180.103 622.639,180.293 622.405,180.293L557.692,180.293C557.458,180.293 557.268,180.482 557.268,180.717L557.268,212.649C557.268,212.762 557.313,212.869 557.392,212.949C557.472,213.029 557.58,213.073 557.692,213.073L606.015,213.073C606.127,213.073 606.235,213.118 606.315,213.197C606.394,213.277 606.439,213.385 606.439,213.497L606.439,229.039C606.439,229.152 606.394,229.26 606.315,229.339C606.235,229.419 606.127,229.463 606.015,229.463L557.692,229.463C557.58,229.463 557.472,229.508 557.392,229.588C557.313,229.667 557.268,229.775 557.268,229.887L557.268,261.82C557.268,262.054 557.458,262.244 557.692,262.244L622.405,262.244C622.639,262.244 622.829,262.434 622.829,262.668L622.829,278.21ZM245.925,180.399C245.878,180.33 245.854,180.248 245.854,180.164L245.854,164.326C245.854,164.214 245.898,164.106 245.978,164.027C246.057,163.947 246.165,163.902 246.278,163.902L261.82,163.902C261.932,163.902 262.04,163.947 262.12,164.027C262.199,164.106 262.244,164.214 262.244,164.326L262.244,174.952C262.244,175.036 262.269,175.118 262.315,175.187L286.477,211.345C286.555,211.463 286.688,211.534 286.829,211.534C286.971,211.534 287.103,211.463 287.182,211.345L311.343,175.187C311.39,175.118 311.415,175.036 311.415,174.952L311.415,164.326C311.415,164.214 311.459,164.106 311.539,164.027C311.618,163.947 311.726,163.902 311.839,163.902L327.381,163.902C327.493,163.902 327.601,163.947 327.681,164.027C327.76,164.106 327.805,164.214 327.805,164.326L327.805,180.164C327.805,180.248 327.78,180.33 327.734,180.399L295.096,229.357C295.049,229.426 295.024,229.508 295.024,229.592L295.024,278.21C295.024,278.323 294.98,278.43 294.9,278.51C294.821,278.589 294.713,278.634 294.6,278.634L279.058,278.634C278.946,278.634 278.838,278.589 278.758,278.51C278.679,278.43 278.634,278.323 278.634,278.21L278.634,229.592C278.634,229.508 278.609,229.426 278.563,229.357L245.925,180.399ZM49.595,131.122C49.361,131.122 49.171,130.932 49.171,130.698L49.171,57.366C49.171,54.493 49.665,51.734 50.572,49.171C53.043,42.189 58.58,36.652 65.561,34.182C68.125,33.274 70.883,32.78 73.756,32.78L106.537,32.78C109.41,32.78 112.168,33.274 114.732,34.182C121.713,36.652 127.25,42.189 129.721,49.171C130.628,51.734 131.122,54.493 131.122,57.366L131.122,65.137C131.122,65.249 131.077,65.357 130.998,65.437C130.918,65.516 130.81,65.561 130.698,65.561L115.156,65.561C115.043,65.561 114.935,65.516 114.856,65.437C114.776,65.357 114.732,65.249 114.732,65.137L114.732,57.366C114.732,52.843 111.06,49.171 106.537,49.171L73.756,49.171C69.233,49.171 65.561,52.843 65.561,57.366L65.561,122.927C65.561,127.45 69.233,131.122 73.756,131.122L106.537,131.122C111.06,131.122 114.732,127.45 114.732,122.927L114.732,115.156C114.732,115.043 114.776,114.935 114.856,114.856C114.935,114.776 115.043,114.732 115.156,114.732L130.698,114.732C130.81,114.732 130.918,114.776 130.998,114.856C131.077,114.935 131.122,115.043 131.122,115.156L131.122,130.698C131.122,130.81 131.077,130.918 130.998,130.998C130.918,131.077 130.81,131.122 130.698,131.122L122.927,131.122C118.404,131.122 114.732,134.794 114.732,139.317L114.732,147.088C114.732,147.201 114.687,147.309 114.608,147.388C114.528,147.468 114.42,147.512 114.308,147.512L65.985,147.512C65.873,147.512 65.765,147.468 65.685,147.388C65.606,147.309 65.561,147.201 65.561,147.088L65.561,139.317C65.561,134.794 61.889,131.122 57.366,131.122L49.595,131.122ZM147.936,147.512C147.702,147.512 147.512,147.322 147.512,147.088L147.512,33.204C147.512,33.092 147.557,32.984 147.636,32.905C147.716,32.825 147.824,32.78 147.936,32.78L163.478,32.78C163.713,32.78 163.902,32.97 163.902,33.204L163.902,130.698C163.902,130.932 164.092,131.122 164.326,131.122L229.039,131.122C229.274,131.122 229.463,131.312 229.463,131.546L229.463,147.088C229.463,147.322 229.274,147.512 229.039,147.512L147.936,147.512ZM352.39,131.122L344.619,131.122C344.385,131.122 344.195,130.932 344.195,130.698L344.195,33.204C344.195,32.97 344.385,32.78 344.619,32.78L360.161,32.78C360.274,32.78 360.382,32.825 360.461,32.905C360.541,32.984 360.585,33.092 360.585,33.204L360.585,122.927C360.585,127.45 364.257,131.122 368.78,131.122L401.561,131.122C406.084,131.122 409.756,127.45 409.756,122.927L409.756,33.204C409.756,33.092 409.801,32.984 409.88,32.905C409.96,32.825 410.068,32.78 410.18,32.78L425.722,32.78C425.957,32.78 426.146,32.97 426.146,33.204L426.146,130.698C426.146,130.932 425.957,131.122 425.722,131.122L417.951,131.122C413.428,131.122 409.756,134.794 409.756,139.317L409.756,147.088C409.756,147.201 409.711,147.309 409.632,147.388C409.552,147.468 409.445,147.512 409.332,147.512L361.009,147.512C360.897,147.512 360.789,147.468 360.71,147.388C360.63,147.309 360.585,147.201 360.585,147.088L360.585,139.317C360.585,134.794 356.913,131.122 352.39,131.122ZM508.098,147.088C508.098,147.322 507.908,147.512 507.674,147.512L442.961,147.512C442.726,147.512 442.537,147.322 442.537,147.088L442.537,33.204C442.537,33.092 442.581,32.984 442.661,32.905C442.74,32.825 442.848,32.78 442.961,32.78L499.902,32.78C502.775,32.78 505.534,33.274 508.098,34.182C515.079,36.652 520.616,42.189 523.087,49.171C523.994,51.734 524.488,54.493 524.488,57.366L524.488,130.698C524.488,130.932 524.298,131.122 524.064,131.122L516.293,131.122C511.77,131.122 508.098,134.794 508.098,139.317L508.098,147.088ZM459.351,49.171C459.117,49.171 458.927,49.361 458.927,49.595L458.927,130.698C458.927,130.932 459.117,131.122 459.351,131.122L499.902,131.122C504.425,131.122 508.098,127.45 508.098,122.927L508.098,57.366C508.098,52.843 504.425,49.171 499.902,49.171L459.351,49.171ZM246.278,131.122C246.043,131.122 245.854,130.932 245.854,130.698L245.854,57.366C245.854,54.493 246.348,51.734 247.255,49.171C249.726,42.189 255.263,36.652 262.244,34.182C264.808,33.274 267.566,32.78 270.439,32.78L303.22,32.78C306.092,32.78 308.851,33.274 311.415,34.182C318.396,36.652 323.933,42.189 326.404,49.171C327.311,51.734 327.805,54.493 327.805,57.366L327.805,130.698C327.805,130.932 327.615,131.122 327.381,131.122L319.61,131.122C315.087,131.122 311.415,134.794 311.415,139.317L311.415,147.088C311.415,147.201 311.37,147.309 311.29,147.388C311.211,147.468 311.103,147.512 310.991,147.512L262.668,147.512C262.555,147.512 262.448,147.468 262.368,147.388C262.289,147.309 262.244,147.201 262.244,147.088L262.244,139.317C262.244,134.794 258.572,131.122 254.049,131.122L246.278,131.122ZM262.444,123.649C262.345,123.742 262.296,123.876 262.313,124.011C262.846,128.022 266.283,131.122 270.439,131.122L303.22,131.122C307.743,131.122 311.415,127.45 311.415,122.927L311.415,78.55C311.415,78.381 311.314,78.228 311.159,78.161C311.004,78.094 310.823,78.126 310.7,78.241L262.444,123.649ZM303.22,49.171L270.439,49.171C265.916,49.171 262.244,52.843 262.244,57.366L262.244,101.754C262.244,101.923 262.344,102.075 262.498,102.143C262.652,102.21 262.832,102.18 262.955,102.066L311.277,57.492C311.367,57.411 311.417,57.294 311.415,57.173C311.31,52.739 307.678,49.171 303.22,49.171Z"/></svg>