<?xml version="1.0" encoding="UTF-8" standalone="no"?><!DOCTYPE svg PUBLIC "-//W3C//DTD SVG 1.1//EN" "http://www.w3.org/Graphics/SVG/1.1/DTD/svg11.dtd"><svg width="100%" height="100%" viewBox="0 0 2300 2300" version="1.1" xmlns="http://www.w3.org/2000/svg" xmlns:xlink="http://www.w3.org/1999/xlink" xml:space="preserve" xmlns:serif="http://www.serif.com/" style="fill-rule:evenodd;clip-rule:evenodd;stroke-linejoin:round;stroke-miterlimit:2;"><g transform="matrix(8.36972,0,0,8.36972,105.459,-22.292)"><g id="MONO"><path d="M99.381,211.268C98.927,211.87 98.131,212.101 97.425,211.834C68.539,200.796 48,172.809 48,140.063C48,101.652 76.26,69.789 113.105,64.15C114.017,64.014 114.871,64.632 115.027,65.542C115.381,67.612 115.682,69.689 115.933,71.77C116.042,72.683 115.405,73.516 114.496,73.652C82.291,78.614 57.6,106.478 57.6,140.063C57.6,169.829 76.995,195.101 103.826,203.92C104.17,204.031 104.432,204.312 104.518,204.663C104.604,205.014 104.502,205.384 104.248,205.641C102.61,207.341 100.788,209.444 99.381,211.268ZM154.192,79.625C153.696,79.384 153.325,78.944 153.173,78.414C152.234,75.157 151.223,71.931 150.14,68.738C150.055,68.487 150.12,68.209 150.309,68.022C150.499,67.836 150.778,67.775 151.028,67.864C180.516,78.593 201.6,106.885 201.6,140.063C201.6,172.31 181.683,199.942 153.49,211.317C152.902,211.551 152.233,211.294 151.954,210.726C150.877,208.519 149.938,206.259 149.136,203.959C148.924,203.346 149.232,202.675 149.835,202.436C174.54,192.501 192,168.305 192,140.063C192,113.512 176.568,90.537 154.192,79.625ZM99.645,5.08L99.491,4.825L99.392,4.551L99.347,4.269L99.356,3.987L99.416,3.711L99.529,3.448L99.692,3.207L99.904,2.998L100.152,2.834L100.421,2.723L100.701,2.667L100.984,2.663L101.262,2.713L101.529,2.814L101.777,2.967L101.995,3.17L102.007,3.184C132.759,39.229 151.517,85.811 152.078,136.728C152.086,137.507 151.826,138.267 151.344,138.877C130.272,165.659 131.18,203.651 152.716,229.435L152.99,229.909L153.078,230.433L152.98,230.955L152.698,231.424L152.267,231.762L151.761,231.923L151.23,231.899L150.726,231.685C139.002,224.037 123.12,225.359 112.831,235.648C104.21,244.269 101.885,256.816 105.854,267.556L105.858,267.569L105.929,267.851L105.944,268.136L105.821,268.676L105.512,269.136L105.294,269.32L105.041,269.462L104.765,269.554L104.482,269.59L103.934,269.508L103.452,269.235L103.252,269.031L103.094,268.794C93.27,250.621 96.03,227.423 111.377,212.076C114.687,208.766 118.362,206.042 122.272,203.903L122.28,203.899C122.521,203.77 122.687,203.534 122.727,203.264C122.767,202.993 122.677,202.719 122.483,202.526C116.804,196.84 99.719,179.755 96.536,176.572L96.317,176.308L96.153,176.014L96.048,175.7L96,175.376L96.01,175.048L96.08,174.725L96.208,174.414L96.395,174.127C98.425,171.565 100.352,168.948 102.176,166.281C135.393,117.728 134.549,52.801 99.645,5.08Z"/></g></g></svg>