<?xml version="1.0" encoding="UTF-8" standalone="no"?><!DOCTYPE svg PUBLIC "-//W3C//DTD SVG 1.1//EN" "http://www.w3.org/Graphics/SVG/1.1/DTD/svg11.dtd"><svg width="100%" height="100%" viewBox="0 0 634 275" version="1.1" xmlns="http://www.w3.org/2000/svg" xmlns:xlink="http://www.w3.org/1999/xlink" xml:space="preserve" xmlns:serif="http://www.serif.com/" style="fill-rule:evenodd;clip-rule:evenodd;stroke-linejoin:round;stroke-miterlimit:2;"><g transform="matrix(1,0,0,1,-48,-6.6)"><path d="M629.224,187.2C629.112,187.2 629.004,187.155 628.924,187.076C628.845,186.996 628.8,186.888 628.8,186.776L628.8,154.024C628.8,153.912 628.845,153.804 628.924,153.724C629.004,153.645 629.112,153.6 629.224,153.6L645.6,153.6C646.441,153.6 647.249,153.745 648,154.01C650.045,154.734 651.666,156.355 652.39,158.4C652.655,159.151 652.8,159.959 652.8,160.8L652.8,167.576C652.8,167.81 652.61,168 652.376,168L650.4,168C649.075,168 648,169.075 648,170.4C648,171.725 649.075,172.8 650.4,172.8L652.376,172.8C652.61,172.8 652.8,172.99 652.8,173.224L652.8,181.976C652.8,182.21 652.61,182.4 652.376,182.4L650.4,182.4C649.075,182.4 648,183.475 648,184.8L648,186.776C648,186.888 647.955,186.996 647.876,187.076C647.796,187.155 647.688,187.2 647.576,187.2L629.224,187.2ZM645.6,158.4L634.024,158.4C633.912,158.4 633.804,158.445 633.724,158.524C633.645,158.604 633.6,158.712 633.6,158.824L633.6,167.576C633.6,167.688 633.645,167.796 633.724,167.876C633.804,167.955 633.912,168 634.024,168L645.6,168C646.925,168 648,166.925 648,165.6L648,160.8C648,159.475 646.925,158.4 645.6,158.4ZM648,180L648,175.2C648,173.875 646.925,172.8 645.6,172.8L634.024,172.8C633.912,172.8 633.804,172.845 633.724,172.924C633.645,173.004 633.6,173.112 633.6,173.224L633.6,181.976C633.6,182.088 633.645,182.196 633.724,182.276C633.804,182.355 633.912,182.4 634.024,182.4L645.6,182.4C646.925,182.4 648,181.325 648,180ZM574.024,187.2C573.912,187.2 573.804,187.155 573.724,187.076C573.645,186.996 573.6,186.888 573.6,186.776L573.6,154.024C573.6,153.912 573.645,153.804 573.724,153.724C573.804,153.645 573.912,153.6 574.024,153.6L577.976,153.6C578.088,153.6 578.196,153.645 578.276,153.724C578.355,153.804 578.4,153.912 578.4,154.024L578.4,181.976C578.4,182.21 578.59,182.4 578.824,182.4L594.776,182.4C594.888,182.4 594.996,182.445 595.076,182.524C595.155,182.604 595.2,182.712 595.2,182.824L595.2,186.776C595.2,186.888 595.155,186.996 595.076,187.076C594.996,187.155 594.888,187.2 594.776,187.2L574.024,187.2ZM657.6,165.6L657.6,160.8C657.6,159.959 657.745,159.151 658.01,158.4C658.734,156.355 660.355,154.734 662.4,154.01C663.151,153.745 663.959,153.6 664.8,153.6L674.4,153.6C675.241,153.6 676.049,153.745 676.8,154.01C678.845,154.734 680.466,156.355 681.19,158.4C681.455,159.151 681.6,159.959 681.6,160.8L681.6,162.776C681.6,162.888 681.555,162.996 681.476,163.076C681.396,163.155 681.288,163.2 681.176,163.2L677.224,163.2C677.112,163.2 677.004,163.155 676.924,163.076C676.845,162.996 676.8,162.888 676.8,162.776L676.8,160.8C676.8,159.475 675.725,158.4 674.4,158.4L664.8,158.4C663.475,158.4 662.4,159.475 662.4,160.8L662.4,165.6C662.4,166.925 663.475,168 664.8,168L674.4,168C675.241,168 676.049,168.145 676.8,168.41C678.845,169.134 680.466,170.755 681.19,172.8C681.455,173.551 681.6,174.359 681.6,175.2L681.6,181.976C681.6,182.21 681.41,182.4 681.176,182.4L679.2,182.4C677.875,182.4 676.8,183.475 676.8,184.8L676.8,186.776C676.8,187.01 676.61,187.2 676.376,187.2L662.824,187.2C662.59,187.2 662.4,187.01 662.4,186.776L662.4,184.8C662.4,183.475 661.325,182.4 660,182.4L658.024,182.4C657.912,182.4 657.804,182.355 657.724,182.276C657.645,182.196 657.6,182.088 657.6,181.976L657.6,178.024C657.6,177.912 657.645,177.804 657.724,177.724C657.804,177.645 657.912,177.6 658.024,177.6L661.976,177.6C662.088,177.6 662.196,177.645 662.276,177.724C662.355,177.804 662.4,177.912 662.4,178.024L662.4,180C662.4,181.325 663.475,182.4 664.8,182.4L674.4,182.4C675.725,182.4 676.8,181.325 676.8,180L676.8,175.2C676.8,173.875 675.725,172.8 674.4,172.8L664.8,172.8C663.959,172.8 663.151,172.655 662.4,172.39C660.355,171.666 658.734,170.045 658.01,168C657.745,167.249 657.6,166.441 657.6,165.6ZM605.224,172.8C604.99,172.8 604.8,172.99 604.8,173.224L604.8,186.776C604.8,186.888 604.755,186.996 604.676,187.076C604.596,187.155 604.488,187.2 604.376,187.2L600.424,187.2C600.312,187.2 600.204,187.155 600.124,187.076C600.045,186.996 600,186.888 600,186.776L600,158.824C600,158.59 600.19,158.4 600.424,158.4L602.4,158.4C603.725,158.4 604.8,157.325 604.8,156L604.8,154.024C604.8,153.79 604.99,153.6 605.224,153.6L618.776,153.6C619.01,153.6 619.2,153.79 619.2,154.024L619.2,156C619.2,157.325 620.275,158.4 621.6,158.4L623.576,158.4C623.81,158.4 624,158.59 624,158.824L624,186.776C624,186.888 623.955,186.996 623.876,187.076C623.796,187.155 623.688,187.2 623.576,187.2L619.624,187.2C619.512,187.2 619.404,187.155 619.324,187.076C619.245,186.996 619.2,186.888 619.2,186.776L619.2,173.224C619.2,172.99 619.01,172.8 618.776,172.8L605.224,172.8ZM604.8,160.8L604.8,167.576C604.8,167.81 604.99,168 605.224,168L618.776,168C619.01,168 619.2,167.81 619.2,167.576L619.2,160.8C619.2,159.475 618.125,158.4 616.8,158.4L607.2,158.4C605.875,158.4 604.8,159.475 604.8,160.8ZM461.224,192C460.99,192 460.8,192.19 460.8,192.424L460.8,220.376C460.8,220.61 460.61,220.8 460.376,220.8L451.624,220.8C451.39,220.8 451.2,220.61 451.2,220.376L451.2,154.024C451.2,153.79 451.39,153.6 451.624,153.6L460.376,153.6C460.61,153.6 460.8,153.79 460.8,154.024L460.8,181.976C460.8,182.21 460.99,182.4 461.224,182.4L489.176,182.4C489.41,182.4 489.6,182.21 489.6,181.976L489.6,154.024C489.6,153.79 489.79,153.6 490.024,153.6L498.776,153.6C499.01,153.6 499.2,153.79 499.2,154.024L499.2,220.376C499.2,220.61 499.01,220.8 498.776,220.8L490.024,220.8C489.79,220.8 489.6,220.61 489.6,220.376L489.6,192.424C489.6,192.19 489.41,192 489.176,192L461.224,192ZM221.224,124.8C221.112,124.8 221.004,124.755 220.924,124.676C220.845,124.596 220.8,124.488 220.8,124.376L220.8,81.6C220.8,79.917 221.089,78.302 221.621,76.8C223.068,72.711 226.311,69.468 230.4,68.021C231.902,67.489 233.517,67.2 235.2,67.2L254.4,67.2C256.083,67.2 257.698,67.489 259.2,68.021C263.289,69.468 266.532,72.711 267.979,76.8C268.511,78.302 268.8,79.917 268.8,81.6L268.8,85.976C268.8,86.088 268.755,86.196 268.676,86.276C268.596,86.355 268.488,86.4 268.376,86.4L259.624,86.4C259.512,86.4 259.404,86.355 259.324,86.276C259.245,86.196 259.2,86.088 259.2,85.976L259.2,81.6C259.2,78.951 257.049,76.8 254.4,76.8L235.2,76.8C232.551,76.8 230.4,78.951 230.4,81.6L230.4,120C230.4,122.649 232.551,124.8 235.2,124.8L254.4,124.8C257.049,124.8 259.2,122.649 259.2,120L259.2,115.624C259.2,115.512 259.245,115.404 259.324,115.324C259.404,115.245 259.512,115.2 259.624,115.2L268.376,115.2C268.61,115.2 268.8,115.39 268.8,115.624L268.8,124.376C268.8,124.488 268.755,124.596 268.676,124.676C268.596,124.755 268.488,124.8 268.376,124.8L264,124.8C261.351,124.8 259.2,126.951 259.2,129.6L259.2,133.976C259.2,134.088 259.155,134.196 259.076,134.276C258.996,134.355 258.888,134.4 258.776,134.4L230.824,134.4C230.712,134.4 230.604,134.355 230.524,134.276C230.445,134.196 230.4,134.088 230.4,133.976L230.4,129.6C230.4,126.951 228.249,124.8 225.6,124.8L221.224,124.8ZM278.824,211.2C278.712,211.2 278.604,211.155 278.524,211.076C278.445,210.996 278.4,210.888 278.4,210.776L278.4,168C278.4,166.317 278.689,164.702 279.221,163.2C280.668,159.111 283.911,155.868 288,154.421C289.502,153.889 291.117,153.6 292.8,153.6L312,153.6C313.683,153.6 315.298,153.889 316.8,154.421C320.889,155.868 324.132,159.111 325.579,163.2C326.111,164.702 326.4,166.317 326.4,168L326.4,172.376C326.4,172.488 326.355,172.596 326.276,172.676C326.196,172.755 326.088,172.8 325.976,172.8L317.224,172.8C317.112,172.8 317.004,172.755 316.924,172.676C316.845,172.596 316.8,172.488 316.8,172.376L316.8,168C316.8,165.351 314.649,163.2 312,163.2L292.8,163.2C290.151,163.2 288,165.351 288,168L288,206.4C288,209.049 290.151,211.2 292.8,211.2L312,211.2C314.649,211.2 316.8,209.049 316.8,206.4L316.8,202.024C316.8,201.912 316.845,201.804 316.924,201.724C317.004,201.645 317.112,201.6 317.224,201.6L325.976,201.6C326.21,201.6 326.4,201.79 326.4,202.024L326.4,210.776C326.4,210.888 326.355,210.996 326.276,211.076C326.196,211.155 326.088,211.2 325.976,211.2L321.6,211.2C318.951,211.2 316.8,213.351 316.8,216L316.8,220.376C316.8,220.488 316.755,220.596 316.676,220.676C316.596,220.755 316.488,220.8 316.376,220.8L288.424,220.8C288.312,220.8 288.204,220.755 288.124,220.676C288.045,220.596 288,220.488 288,220.376L288,216C288,213.351 285.849,211.2 283.2,211.2L278.824,211.2ZM278.824,134.4C278.59,134.4 278.4,134.21 278.4,133.976L278.4,67.624C278.4,67.39 278.59,67.2 278.824,67.2L287.576,67.2C287.81,67.2 288,67.39 288,67.624L288,124.376C288,124.61 288.19,124.8 288.424,124.8L325.976,124.8C326.21,124.8 326.4,124.99 326.4,125.224L326.4,133.976C326.4,134.21 326.21,134.4 325.976,134.4L278.824,134.4ZM412.8,163.624C412.8,163.39 412.61,163.2 412.376,163.2L394.024,163.2C393.912,163.2 393.804,163.155 393.724,163.076C393.645,162.996 393.6,162.888 393.6,162.776L393.6,154.024C393.6,153.79 393.79,153.6 394.024,153.6L441.176,153.6C441.41,153.6 441.6,153.79 441.6,154.024L441.6,162.776C441.6,162.888 441.555,162.996 441.476,163.076C441.396,163.155 441.288,163.2 441.176,163.2L422.824,163.2C422.59,163.2 422.4,163.39 422.4,163.624L422.4,220.376C422.4,220.61 422.21,220.8 421.976,220.8L413.224,220.8C412.99,220.8 412.8,220.61 412.8,220.376L412.8,163.624ZM398.4,124.8L394.024,124.8C393.79,124.8 393.6,124.61 393.6,124.376L393.6,67.624C393.6,67.39 393.79,67.2 394.024,67.2L402.776,67.2C403.01,67.2 403.2,67.39 403.2,67.624L403.2,120C403.2,122.649 405.351,124.8 408,124.8L427.2,124.8C429.849,124.8 432,122.649 432,120L432,67.624C432,67.39 432.19,67.2 432.424,67.2L441.176,67.2C441.41,67.2 441.6,67.39 441.6,67.624L441.6,124.376C441.6,124.61 441.41,124.8 441.176,124.8L436.8,124.8C434.151,124.8 432,126.951 432,129.6L432,133.976C432,134.088 431.955,134.196 431.876,134.276C431.796,134.355 431.688,134.4 431.576,134.4L403.624,134.4C403.512,134.4 403.404,134.355 403.324,134.276C403.245,134.196 403.2,134.088 403.2,133.976L403.2,129.6C403.2,126.951 401.049,124.8 398.4,124.8ZM220.8,177.6L220.8,168C220.8,166.317 221.089,164.702 221.621,163.2C223.068,159.111 226.311,155.868 230.4,154.421C231.902,153.889 233.517,153.6 235.2,153.6L254.4,153.6C256.083,153.6 257.698,153.889 259.2,154.421C263.289,155.868 266.532,159.111 267.979,163.2C268.511,164.702 268.8,166.317 268.8,168L268.8,172.376C268.8,172.488 268.755,172.596 268.676,172.676C268.596,172.755 268.488,172.8 268.376,172.8L259.624,172.8C259.512,172.8 259.404,172.755 259.324,172.676C259.245,172.596 259.2,172.488 259.2,172.376L259.2,168C259.2,165.351 257.049,163.2 254.4,163.2L235.2,163.2C232.551,163.2 230.4,165.351 230.4,168L230.4,177.6C230.4,180.249 232.551,182.4 235.2,182.4L254.4,182.4C256.083,182.4 257.698,182.689 259.2,183.221C263.289,184.668 266.532,187.911 267.979,192C268.511,193.502 268.8,195.117 268.8,196.8L268.8,210.776C268.8,210.888 268.755,210.996 268.676,211.076C268.596,211.155 268.488,211.2 268.376,211.2L264,211.2C261.351,211.2 259.2,213.351 259.2,216L259.2,220.376C259.2,220.488 259.155,220.596 259.076,220.676C258.996,220.755 258.888,220.8 258.776,220.8L230.824,220.8C230.712,220.8 230.604,220.755 230.524,220.676C230.445,220.596 230.4,220.488 230.4,220.376L230.4,216C230.4,213.351 228.249,211.2 225.6,211.2L221.224,211.2C221.112,211.2 221.004,211.155 220.924,211.076C220.845,210.996 220.8,210.888 220.8,210.776L220.8,202.024C220.8,201.79 220.99,201.6 221.224,201.6L229.976,201.6C230.088,201.6 230.196,201.645 230.276,201.724C230.355,201.804 230.4,201.912 230.4,202.024L230.4,206.4C230.4,209.049 232.551,211.2 235.2,211.2L254.4,211.2C257.049,211.2 259.2,209.049 259.2,206.4L259.2,196.8C259.2,194.151 257.049,192 254.4,192L235.2,192C233.517,192 231.902,191.711 230.4,191.179C226.311,189.732 223.068,186.489 221.621,182.4C221.089,180.898 220.8,179.283 220.8,177.6ZM556.8,220.376C556.8,220.61 556.61,220.8 556.376,220.8L509.224,220.8C508.99,220.8 508.8,220.61 508.8,220.376L508.8,154.024C508.8,153.79 508.99,153.6 509.224,153.6L556.376,153.6C556.61,153.6 556.8,153.79 556.8,154.024L556.8,162.776C556.8,163.01 556.61,163.2 556.376,163.2L518.824,163.2C518.59,163.2 518.4,163.39 518.4,163.624L518.4,181.976C518.4,182.21 518.59,182.4 518.824,182.4L546.776,182.4C547.01,182.4 547.2,182.59 547.2,182.824L547.2,191.576C547.2,191.81 547.01,192 546.776,192L518.824,192C518.59,192 518.4,192.19 518.4,192.424L518.4,210.776C518.4,211.01 518.59,211.2 518.824,211.2L556.376,211.2C556.61,211.2 556.8,211.39 556.8,211.624L556.8,220.376ZM489.6,133.976C489.6,134.21 489.41,134.4 489.176,134.4L451.624,134.4C451.39,134.4 451.2,134.21 451.2,133.976L451.2,67.624C451.2,67.512 451.245,67.404 451.324,67.324C451.404,67.245 451.512,67.2 451.624,67.2L484.8,67.2C486.483,67.2 488.098,67.489 489.6,68.021C493.689,69.468 496.932,72.711 498.379,76.8C498.911,78.302 499.2,79.917 499.2,81.6L499.2,124.376C499.2,124.488 499.155,124.596 499.076,124.676C498.996,124.755 498.888,124.8 498.776,124.8L494.4,124.8C491.751,124.8 489.6,126.951 489.6,129.6L489.6,133.976ZM461.224,76.8C460.99,76.8 460.8,76.99 460.8,77.224L460.8,124.376C460.8,124.61 460.99,124.8 461.224,124.8L484.8,124.8C487.449,124.8 489.6,122.649 489.6,120L489.6,81.6C489.6,78.951 487.449,76.8 484.8,76.8L461.224,76.8ZM336.071,163.307C336.025,163.237 336,163.155 336,163.072L336,154.024C336,153.79 336.19,153.6 336.424,153.6L345.176,153.6C345.288,153.6 345.396,153.645 345.476,153.724C345.555,153.804 345.6,153.912 345.6,154.024L345.6,160.019C345.6,160.102 345.625,160.184 345.671,160.254L359.648,181.17C359.726,181.287 359.858,181.358 360,181.358C360.142,181.358 360.274,181.287 360.352,181.17L374.329,160.254C374.375,160.184 374.4,160.102 374.4,160.019L374.4,154.024C374.4,153.912 374.445,153.804 374.524,153.724C374.604,153.645 374.712,153.6 374.824,153.6L383.576,153.6C383.81,153.6 384,153.79 384,154.024L384,163.072C384,163.155 383.975,163.237 383.929,163.307L364.871,191.893C364.825,191.963 364.8,192.045 364.8,192.128L364.8,220.376C364.8,220.61 364.61,220.8 364.376,220.8L355.624,220.8C355.39,220.8 355.2,220.61 355.2,220.376L355.2,192.128C355.2,192.045 355.175,191.963 355.129,191.893L336.071,163.307ZM336.424,124.8C336.312,124.8 336.204,124.755 336.124,124.676C336.045,124.596 336,124.488 336,124.376L336,81.6C336,79.917 336.289,78.302 336.821,76.8C338.268,72.711 341.511,69.468 345.6,68.021C347.102,67.489 348.717,67.2 350.4,67.2L369.6,67.2C371.283,67.2 372.898,67.489 374.4,68.021C378.489,69.468 381.732,72.711 383.179,76.8C383.711,78.302 384,79.917 384,81.6L384,124.376C384,124.488 383.955,124.596 383.876,124.676C383.796,124.755 383.688,124.8 383.576,124.8L379.2,124.8C376.551,124.8 374.4,126.951 374.4,129.6L374.4,133.976C374.4,134.088 374.355,134.196 374.276,134.276C374.196,134.355 374.088,134.4 373.976,134.4L346.024,134.4C345.912,134.4 345.804,134.355 345.724,134.276C345.645,134.196 345.6,134.088 345.6,133.976L345.6,129.6C345.6,126.951 343.449,124.8 340.8,124.8L336.424,124.8ZM345.782,120.362C345.681,120.457 345.633,120.594 345.652,120.73C346.007,123.033 347.999,124.8 350.4,124.8L369.6,124.8C372.249,124.8 374.4,122.649 374.4,120L374.4,94.414C374.4,94.245 374.299,94.092 374.144,94.025C373.989,93.958 373.809,93.99 373.685,94.106L345.782,120.362ZM369.6,76.8L350.4,76.8C347.751,76.8 345.6,78.951 345.6,81.6L345.6,107.198C345.6,107.366 345.7,107.519 345.854,107.586C346.008,107.654 346.188,107.624 346.311,107.51L374.262,81.727C374.353,81.644 374.403,81.525 374.399,81.402C374.292,78.845 372.183,76.8 369.6,76.8ZM99.645,9.017L99.491,8.762L99.392,8.488L99.347,8.206L99.356,7.923L99.416,7.647L99.529,7.385L99.692,7.144L99.904,6.934L100.152,6.77L100.421,6.66L100.701,6.603L100.984,6.6L101.262,6.649L101.529,6.751L101.777,6.904L101.995,7.106L102.007,7.12C132.759,43.165 151.517,89.748 152.078,140.664C152.086,141.444 151.826,142.203 151.344,142.813C130.272,169.596 131.18,207.587 152.716,233.372L152.99,233.846L153.078,234.369L152.98,234.891L152.698,235.36L152.267,235.698L151.761,235.859L151.23,235.836L150.726,235.622C139.002,227.973 123.12,229.296 112.831,239.585C104.21,248.205 101.885,260.753 105.854,271.492L105.858,271.506L105.929,271.788L105.944,272.072L105.821,272.613L105.512,273.073L105.294,273.257L105.041,273.399L104.765,273.49L104.482,273.527L103.934,273.445L103.452,273.171L103.252,272.968L103.094,272.73C93.27,254.558 96.03,231.36 111.377,216.013C114.687,212.703 118.362,209.979 122.272,207.84L122.28,207.836C122.521,207.707 122.687,207.471 122.727,207.2C122.767,206.93 122.677,206.656 122.483,206.462C116.804,200.776 99.719,183.691 96.536,180.509L96.317,180.244L96.153,179.95L96.048,179.637L96,179.312L96.01,178.985L96.08,178.661L96.208,178.35L96.395,178.063C98.425,175.501 100.352,172.884 102.176,170.218C135.393,121.665 134.549,56.737 99.645,9.017Z"/></g></svg>