<?xml version="1.0" encoding="UTF-8" standalone="no"?><!DOCTYPE svg PUBLIC "-//W3C//DTD SVG 1.1//EN" "http://www.w3.org/Graphics/SVG/1.1/DTD/svg11.dtd"><svg width="100%" height="100%" viewBox="0 0 703 141" version="1.1" xmlns="http://www.w3.org/2000/svg" xmlns:xlink="http://www.w3.org/1999/xlink" xml:space="preserve" xmlns:serif="http://www.serif.com/" style="fill-rule:evenodd;clip-rule:evenodd;stroke-linejoin:round;stroke-miterlimit:2;"><g id="DUO2" transform="matrix(1,0,0,1,2.0203e-05,-73.7455)"><path d="M58.036,110.067C76.765,110.067 91.97,125.272 91.97,144C91.97,162.728 76.765,177.933 58.036,177.933C39.308,177.933 24.103,162.728 24.103,144C24.103,125.272 39.308,110.067 58.036,110.067ZM58.036,114.933C41.994,114.933 28.97,127.958 28.97,144C28.97,160.042 41.994,173.067 58.036,173.067C74.079,173.067 87.103,160.042 87.103,144C87.103,127.958 74.079,114.933 58.036,114.933Z"/></g><path id="DUO1" d="M611.333,91.636C611.221,91.636 611.113,91.592 611.033,91.512C610.954,91.433 610.909,91.325 610.909,91.212L610.909,49.297C610.909,49.184 610.954,49.076 611.033,48.997C611.113,48.917 611.221,48.873 611.333,48.873L632.291,48.873C633.362,48.873 634.39,49.057 635.345,49.395C637.948,50.316 640.011,52.38 640.932,54.982C641.27,55.937 641.455,56.966 641.455,58.036L641.455,66.776C641.455,66.888 641.41,66.996 641.33,67.076C641.251,67.155 641.143,67.2 641.031,67.2L638.4,67.2C636.714,67.2 635.345,68.569 635.345,70.255C635.345,71.94 636.714,73.309 638.4,73.309L641.031,73.309C641.143,73.309 641.251,73.354 641.33,73.433C641.41,73.513 641.455,73.621 641.455,73.733L641.455,85.103C641.455,85.216 641.41,85.324 641.33,85.403C641.251,85.483 641.143,85.527 641.031,85.527L638.4,85.527C636.714,85.527 635.345,86.896 635.345,88.582L635.345,91.212C635.345,91.325 635.301,91.433 635.221,91.512C635.142,91.592 635.034,91.636 634.922,91.636L611.333,91.636ZM635.345,82.473L635.345,76.364C635.345,74.678 633.977,73.309 632.291,73.309L617.442,73.309C617.33,73.309 617.222,73.354 617.142,73.433C617.063,73.513 617.018,73.621 617.018,73.733L617.018,85.103C617.018,85.216 617.063,85.324 617.142,85.403C617.222,85.483 617.33,85.527 617.442,85.527L632.291,85.527C633.977,85.527 635.345,84.159 635.345,82.473ZM632.291,54.982L617.442,54.982C617.33,54.982 617.222,55.026 617.142,55.106C617.063,55.185 617.018,55.293 617.018,55.406L617.018,66.776C617.018,66.888 617.063,66.996 617.142,67.076C617.222,67.155 617.33,67.2 617.442,67.2L632.291,67.2C633.977,67.2 635.345,65.831 635.345,64.145L635.345,58.036C635.345,56.351 633.977,54.982 632.291,54.982ZM541.079,91.636C540.966,91.636 540.858,91.592 540.779,91.512C540.699,91.433 540.655,91.325 540.655,91.212L540.655,49.297C540.655,49.184 540.699,49.076 540.779,48.997C540.858,48.917 540.966,48.873 541.079,48.873L546.34,48.873C546.574,48.873 546.764,49.063 546.764,49.297L546.764,85.103C546.764,85.337 546.953,85.527 547.188,85.527L567.722,85.527C567.956,85.527 568.145,85.717 568.145,85.951L568.145,91.212C568.145,91.325 568.101,91.433 568.021,91.512C567.942,91.592 567.834,91.636 567.722,91.636L541.079,91.636ZM140.933,91.636C140.821,91.636 140.713,91.592 140.633,91.512C140.554,91.433 140.509,91.325 140.509,91.212L140.509,49.297C140.509,49.184 140.554,49.076 140.633,48.997C140.713,48.917 140.821,48.873 140.933,48.873L146.194,48.873C146.428,48.873 146.618,49.063 146.618,49.297L146.618,85.103C146.618,85.337 146.808,85.527 147.042,85.527L167.576,85.527C167.81,85.527 168,85.717 168,85.951L168,91.212C168,91.325 167.955,91.433 167.876,91.512C167.796,91.592 167.688,91.636 167.576,91.636L140.933,91.636ZM647.564,64.145L647.564,58.036C647.564,56.966 647.748,55.937 648.086,54.982C649.007,52.38 651.071,50.316 653.673,49.395C654.628,49.057 655.656,48.873 656.727,48.873L668.945,48.873C670.016,48.873 671.044,49.057 672,49.395C674.602,50.316 676.666,52.38 677.587,54.982C677.925,55.937 678.109,56.966 678.109,58.036L678.109,60.667C678.109,60.901 677.919,61.091 677.685,61.091L672.424,61.091C672.19,61.091 672,60.901 672,60.667L672,58.036C672,56.351 670.631,54.982 668.945,54.982L656.727,54.982C655.041,54.982 653.673,56.351 653.673,58.036L653.673,64.145C653.673,65.831 655.041,67.2 656.727,67.2L668.945,67.2C670.016,67.2 671.044,67.384 672,67.722C674.602,68.643 676.666,70.707 677.587,73.309C677.925,74.265 678.109,75.293 678.109,76.364L678.109,85.103C678.109,85.216 678.064,85.324 677.985,85.403C677.905,85.483 677.798,85.527 677.685,85.527L675.055,85.527C673.369,85.527 672,86.896 672,88.582L672,91.212C672,91.325 671.955,91.433 671.876,91.512C671.796,91.592 671.688,91.636 671.576,91.636L654.097,91.636C653.984,91.636 653.876,91.592 653.797,91.512C653.717,91.433 653.673,91.325 653.673,91.212L653.673,88.582C653.673,86.896 652.304,85.527 650.618,85.527L647.988,85.527C647.753,85.527 647.564,85.337 647.564,85.103L647.564,79.842C647.564,79.73 647.608,79.622 647.688,79.542C647.767,79.463 647.875,79.418 647.988,79.418L653.249,79.418C653.483,79.418 653.673,79.608 653.673,79.842L653.673,82.473C653.673,84.159 655.041,85.527 656.727,85.527L668.945,85.527C670.631,85.527 672,84.159 672,82.473L672,76.364C672,74.678 670.631,73.309 668.945,73.309L656.727,73.309C655.656,73.309 654.628,73.125 653.673,72.787C651.071,71.866 649.007,69.802 648.086,67.2C647.748,66.244 647.564,65.216 647.564,64.145ZM580.788,73.309C580.675,73.309 580.567,73.354 580.488,73.433C580.408,73.513 580.364,73.621 580.364,73.733L580.364,91.212C580.364,91.325 580.319,91.433 580.239,91.512C580.16,91.592 580.052,91.636 579.94,91.636L574.679,91.636C574.444,91.636 574.255,91.447 574.255,91.212L574.255,55.406C574.255,55.172 574.444,54.982 574.679,54.982L577.309,54.982C578.995,54.982 580.364,53.613 580.364,51.927L580.364,49.297C580.364,49.184 580.408,49.076 580.488,48.997C580.567,48.917 580.675,48.873 580.788,48.873L598.267,48.873C598.379,48.873 598.487,48.917 598.567,48.997C598.646,49.076 598.691,49.184 598.691,49.297L598.691,51.927C598.691,53.613 600.06,54.982 601.745,54.982L604.376,54.982C604.61,54.982 604.8,55.172 604.8,55.406L604.8,91.212C604.8,91.447 604.61,91.636 604.376,91.636L599.115,91.636C599.002,91.636 598.895,91.592 598.815,91.512C598.736,91.433 598.691,91.325 598.691,91.212L598.691,73.733C598.691,73.621 598.646,73.513 598.567,73.433C598.487,73.354 598.379,73.309 598.267,73.309L580.788,73.309ZM580.364,58.036L580.364,66.776C580.364,66.888 580.408,66.996 580.488,67.076C580.567,67.155 580.675,67.2 580.788,67.2L598.267,67.2C598.379,67.2 598.487,67.155 598.567,67.076C598.646,66.996 598.691,66.888 598.691,66.776L598.691,58.036C598.691,56.351 597.322,54.982 595.636,54.982L583.418,54.982C581.732,54.982 580.364,56.35 580.364,58.036ZM455.551,73.309C455.439,73.309 455.331,73.354 455.251,73.433C455.172,73.513 455.127,73.621 455.127,73.733L455.127,91.212C455.127,91.325 455.083,91.433 455.003,91.512C454.924,91.592 454.816,91.636 454.703,91.636L449.442,91.636C449.33,91.636 449.222,91.592 449.142,91.512C449.063,91.433 449.018,91.325 449.018,91.212L449.018,49.297C449.018,49.184 449.063,49.076 449.142,48.997C449.222,48.917 449.33,48.873 449.442,48.873L454.703,48.873C454.816,48.873 454.924,48.917 455.003,48.997C455.083,49.076 455.127,49.184 455.127,49.297L455.127,66.776C455.127,66.888 455.172,66.996 455.251,67.076C455.331,67.155 455.439,67.2 455.551,67.2L473.031,67.2C473.143,67.2 473.251,67.155 473.33,67.076C473.41,66.996 473.455,66.888 473.455,66.776L473.455,49.297C473.455,49.184 473.499,49.076 473.579,48.997C473.658,48.917 473.766,48.873 473.879,48.873L479.14,48.873C479.252,48.873 479.36,48.917 479.439,48.997C479.519,49.076 479.564,49.184 479.564,49.297L479.564,91.212C479.564,91.325 479.519,91.433 479.439,91.512C479.36,91.592 479.252,91.636 479.14,91.636L473.879,91.636C473.766,91.636 473.658,91.592 473.579,91.512C473.499,91.433 473.455,91.325 473.455,91.212L473.455,73.733C473.455,73.621 473.41,73.513 473.33,73.433C473.251,73.354 473.143,73.309 473.031,73.309L455.551,73.309ZM339.479,85.527C339.244,85.527 339.055,85.337 339.055,85.103L339.055,58.036C339.055,56.966 339.239,55.937 339.577,54.982C340.498,52.38 342.562,50.316 345.164,49.395C346.119,49.057 347.147,48.873 348.218,48.873L360.436,48.873C361.507,48.873 362.535,49.057 363.491,49.395C366.093,50.316 368.157,52.38 369.078,54.982C369.416,55.937 369.6,56.966 369.6,58.036L369.6,60.667C369.6,60.901 369.41,61.091 369.176,61.091L363.915,61.091C363.681,61.091 363.491,60.901 363.491,60.667L363.491,58.036C363.491,56.351 362.122,54.982 360.436,54.982L348.218,54.982C346.532,54.982 345.164,56.351 345.164,58.036L345.164,82.473C345.164,84.159 346.532,85.527 348.218,85.527L360.436,85.527C362.122,85.527 363.491,84.159 363.491,82.473L363.491,79.842C363.491,79.608 363.681,79.418 363.915,79.418L369.176,79.418C369.288,79.418 369.396,79.463 369.476,79.542C369.555,79.622 369.6,79.73 369.6,79.842L369.6,85.103C369.6,85.337 369.41,85.527 369.176,85.527L366.545,85.527C364.86,85.527 363.491,86.896 363.491,88.582L363.491,91.212C363.491,91.325 363.446,91.433 363.367,91.512C363.287,91.592 363.179,91.636 363.067,91.636L345.588,91.636C345.475,91.636 345.367,91.592 345.288,91.512C345.208,91.433 345.164,91.325 345.164,91.212L345.164,88.582C345.164,86.896 343.795,85.527 342.109,85.527L339.479,85.527ZM424.582,55.406C424.582,55.172 424.392,54.982 424.158,54.982L412.788,54.982C412.675,54.982 412.567,54.937 412.488,54.858C412.408,54.778 412.364,54.67 412.364,54.558L412.364,49.297C412.364,49.184 412.408,49.076 412.488,48.997C412.567,48.917 412.675,48.873 412.788,48.873L442.485,48.873C442.598,48.873 442.705,48.917 442.785,48.997C442.864,49.076 442.909,49.184 442.909,49.297L442.909,54.558C442.909,54.67 442.864,54.778 442.785,54.858C442.705,54.937 442.598,54.982 442.485,54.982L431.115,54.982C430.881,54.982 430.691,55.172 430.691,55.406L430.691,91.212C430.691,91.447 430.501,91.636 430.267,91.636L425.006,91.636C424.772,91.636 424.582,91.447 424.582,91.212L424.582,55.406ZM302.4,64.145L302.4,58.036C302.4,56.966 302.584,55.937 302.922,54.982C303.843,52.38 305.907,50.316 308.509,49.395C309.465,49.057 310.493,48.873 311.564,48.873L323.782,48.873C324.853,48.873 325.881,49.057 326.836,49.395C329.438,50.316 331.502,52.38 332.423,54.982C332.761,55.937 332.945,56.966 332.945,58.036L332.945,60.667C332.945,60.901 332.756,61.091 332.522,61.091L327.26,61.091C327.026,61.091 326.836,60.901 326.836,60.667L326.836,58.036C326.836,56.351 325.468,54.982 323.782,54.982L311.564,54.982C309.878,54.982 308.509,56.351 308.509,58.036L308.509,64.145C308.509,65.831 309.878,67.2 311.564,67.2L323.782,67.2C324.853,67.2 325.881,67.384 326.836,67.722C329.438,68.643 331.502,70.707 332.423,73.309C332.761,74.265 332.945,75.293 332.945,76.364L332.945,85.103C332.945,85.216 332.901,85.324 332.821,85.403C332.742,85.483 332.634,85.527 332.522,85.527L329.891,85.527C328.205,85.527 326.836,86.896 326.836,88.582L326.836,91.212C326.836,91.325 326.792,91.433 326.712,91.512C326.633,91.592 326.525,91.636 326.412,91.636L308.933,91.636C308.821,91.636 308.713,91.592 308.633,91.512C308.554,91.433 308.509,91.325 308.509,91.212L308.509,88.582C308.509,86.896 307.14,85.527 305.455,85.527L302.824,85.527C302.59,85.527 302.4,85.337 302.4,85.103L302.4,79.842C302.4,79.73 302.445,79.622 302.524,79.542C302.604,79.463 302.712,79.418 302.824,79.418L308.085,79.418C308.319,79.418 308.509,79.608 308.509,79.842L308.509,82.473C308.509,84.159 309.878,85.527 311.564,85.527L323.782,85.527C325.468,85.527 326.836,84.159 326.836,82.473L326.836,76.364C326.836,74.678 325.468,73.309 323.782,73.309L311.564,73.309C310.493,73.309 309.465,73.125 308.509,72.787C305.907,71.866 303.843,69.802 302.922,67.2C302.584,66.244 302.4,65.216 302.4,64.145ZM516.218,91.212C516.218,91.325 516.174,91.433 516.094,91.512C516.015,91.592 515.907,91.636 515.794,91.636L486.097,91.636C485.984,91.636 485.876,91.592 485.797,91.512C485.717,91.433 485.673,91.325 485.673,91.212L485.673,49.297C485.673,49.184 485.717,49.076 485.797,48.997C485.876,48.917 485.984,48.873 486.097,48.873L515.794,48.873C515.907,48.873 516.015,48.917 516.094,48.997C516.174,49.076 516.218,49.184 516.218,49.297L516.218,54.558C516.218,54.67 516.174,54.778 516.094,54.858C516.015,54.937 515.907,54.982 515.794,54.982L492.206,54.982C492.093,54.982 491.986,55.026 491.906,55.106C491.827,55.185 491.782,55.293 491.782,55.406L491.782,66.776C491.782,66.888 491.827,66.996 491.906,67.076C491.986,67.155 492.093,67.2 492.206,67.2L509.685,67.2C509.798,67.2 509.905,67.245 509.985,67.324C510.064,67.404 510.109,67.512 510.109,67.624L510.109,72.885C510.109,72.998 510.064,73.105 509.985,73.185C509.905,73.264 509.798,73.309 509.685,73.309L492.206,73.309C492.093,73.309 491.986,73.354 491.906,73.433C491.827,73.513 491.782,73.621 491.782,73.733L491.782,85.103C491.782,85.216 491.826,85.324 491.906,85.403C491.986,85.483 492.093,85.527 492.206,85.527L515.794,85.527C515.907,85.527 516.015,85.572 516.094,85.651C516.174,85.731 516.218,85.839 516.218,85.951L516.218,91.212ZM375.78,55.089C375.734,55.019 375.709,54.937 375.709,54.853L375.709,49.297C375.709,49.184 375.754,49.076 375.833,48.997C375.913,48.917 376.021,48.873 376.133,48.873L381.394,48.873C381.628,48.873 381.818,49.063 381.818,49.297L381.818,52.91C381.818,52.994 381.843,53.076 381.89,53.146L390.629,66.225C390.708,66.343 390.84,66.414 390.982,66.414C391.123,66.414 391.256,66.343 391.334,66.225L400.074,53.146C400.121,53.076 400.145,52.994 400.145,52.91L400.145,49.297C400.145,49.063 400.335,48.873 400.569,48.873L405.831,48.873C405.943,48.873 406.051,48.917 406.13,48.997C406.21,49.076 406.255,49.184 406.255,49.297L406.255,54.853C406.255,54.937 406.23,55.019 406.183,55.089L394.108,73.202C394.061,73.272 394.036,73.354 394.036,73.437L394.036,91.212C394.036,91.325 393.992,91.433 393.912,91.512C393.833,91.592 393.725,91.636 393.612,91.636L388.351,91.636C388.239,91.636 388.131,91.592 388.051,91.512C387.972,91.433 387.927,91.325 387.927,91.212L387.927,73.437C387.927,73.354 387.903,73.272 387.856,73.202L375.78,55.089ZM104.279,85.527C104.044,85.527 103.855,85.337 103.855,85.103L103.855,58.036C103.855,56.966 104.039,55.937 104.377,54.982C105.298,52.38 107.362,50.316 109.964,49.395C110.919,49.057 111.947,48.873 113.018,48.873L125.236,48.873C126.307,48.873 127.335,49.057 128.291,49.395C130.893,50.316 132.957,52.38 133.878,54.982C134.216,55.937 134.4,56.966 134.4,58.036L134.4,60.667C134.4,60.901 134.21,61.091 133.976,61.091L128.715,61.091C128.481,61.091 128.291,60.901 128.291,60.667L128.291,58.036C128.291,56.35 126.922,54.982 125.236,54.982L113.018,54.982C111.332,54.982 109.964,56.351 109.964,58.036L109.964,82.473C109.964,84.159 111.332,85.527 113.018,85.527L125.236,85.527C126.922,85.527 128.291,84.159 128.291,82.473L128.291,79.842C128.291,79.608 128.481,79.418 128.715,79.418L133.976,79.418C134.088,79.418 134.196,79.463 134.276,79.542C134.355,79.622 134.4,79.73 134.4,79.842L134.4,85.103C134.4,85.337 134.21,85.527 133.976,85.527L131.345,85.527C129.66,85.527 128.291,86.896 128.291,88.582L128.291,91.212C128.291,91.325 128.246,91.433 128.167,91.512C128.087,91.592 127.979,91.636 127.867,91.636L110.388,91.636C110.275,91.636 110.167,91.592 110.088,91.512C110.008,91.433 109.964,91.325 109.964,91.212L109.964,88.582C109.964,86.896 108.595,85.527 106.909,85.527L104.279,85.527ZM213.818,85.527L211.188,85.527C210.953,85.527 210.764,85.337 210.764,85.103L210.764,49.297C210.764,49.063 210.953,48.873 211.188,48.873L216.449,48.873C216.561,48.873 216.669,48.917 216.749,48.997C216.828,49.076 216.873,49.184 216.873,49.297L216.873,82.473C216.873,84.159 218.241,85.527 219.927,85.527L232.145,85.527C233.831,85.527 235.2,84.159 235.2,82.473L235.2,49.297C235.2,49.184 235.245,49.076 235.324,48.997C235.404,48.917 235.512,48.873 235.624,48.873L240.885,48.873C241.119,48.873 241.309,49.063 241.309,49.297L241.309,85.103C241.309,85.337 241.119,85.527 240.885,85.527L238.255,85.527C236.569,85.527 235.2,86.896 235.2,88.582L235.2,91.212C235.2,91.325 235.155,91.433 235.076,91.512C234.996,91.592 234.888,91.636 234.776,91.636L217.297,91.636C217.184,91.636 217.076,91.592 216.997,91.512C216.917,91.433 216.873,91.325 216.873,91.212L216.873,88.582C216.873,86.896 215.504,85.527 213.818,85.527ZM271.855,91.212C271.855,91.325 271.81,91.433 271.73,91.512C271.651,91.592 271.543,91.636 271.431,91.636L247.842,91.636C247.73,91.636 247.622,91.592 247.542,91.512C247.463,91.433 247.418,91.325 247.418,91.212L247.418,49.297C247.418,49.184 247.463,49.076 247.542,48.997C247.622,48.917 247.73,48.873 247.842,48.873L268.8,48.873C269.871,48.873 270.899,49.057 271.855,49.395C274.457,50.316 276.52,52.38 277.441,54.982C277.78,55.937 277.964,56.966 277.964,58.036L277.964,85.103C277.964,85.337 277.774,85.527 277.54,85.527L274.909,85.527C273.223,85.527 271.855,86.896 271.855,88.582L271.855,91.212ZM253.951,54.982C253.839,54.982 253.731,55.026 253.651,55.106C253.572,55.185 253.527,55.293 253.527,55.406L253.527,85.103C253.527,85.216 253.572,85.324 253.651,85.403C253.731,85.483 253.839,85.527 253.951,85.527L268.8,85.527C270.486,85.527 271.855,84.159 271.855,82.473L271.855,58.036C271.855,56.351 270.486,54.982 268.8,54.982L253.951,54.982ZM174.533,85.527C174.299,85.527 174.109,85.337 174.109,85.103L174.109,58.036C174.109,56.966 174.293,55.937 174.631,54.982C175.552,52.38 177.616,50.316 180.218,49.395C181.174,49.057 182.202,48.873 183.273,48.873L195.491,48.873C196.562,48.873 197.59,49.057 198.545,49.395C201.148,50.316 203.211,52.38 204.132,54.982C204.47,55.937 204.655,56.966 204.655,58.036L204.655,85.103C204.655,85.337 204.465,85.527 204.231,85.527L201.6,85.527C199.914,85.527 198.545,86.896 198.545,88.582L198.545,91.212C198.545,91.325 198.501,91.433 198.421,91.512C198.342,91.592 198.234,91.636 198.122,91.636L180.642,91.636C180.53,91.636 180.422,91.592 180.342,91.512C180.263,91.433 180.218,91.325 180.218,91.212L180.218,88.582C180.218,86.896 178.85,85.527 177.164,85.527L174.533,85.527ZM180.391,82.649C180.288,82.746 180.24,82.887 180.263,83.026C180.529,84.448 181.776,85.527 183.273,85.527L195.491,85.527C197.177,85.527 198.545,84.159 198.545,82.473L198.545,66.548C198.545,66.379 198.445,66.226 198.29,66.159C198.134,66.091 197.954,66.123 197.831,66.239L180.391,82.649ZM195.491,54.982L183.273,54.982C181.587,54.982 180.218,56.351 180.218,58.036L180.218,73.974C180.218,74.142 180.318,74.295 180.472,74.362C180.626,74.43 180.806,74.4 180.93,74.286L198.407,58.164C198.5,58.079 198.55,57.957 198.544,57.831C198.433,56.241 197.108,54.982 195.491,54.982ZM70.47,68.791L70.47,68.793C70.475,69.249 70.323,69.689 70.043,70.044C60.97,81.575 61.361,97.933 70.633,109.034C70.991,109.463 70.949,110.179 70.588,110.586C70.23,110.99 69.652,111.114 69.106,110.758C64.171,107.538 57.485,108.095 53.153,112.426C49.524,116.056 48.545,121.338 50.216,125.859C50.394,126.34 50.161,127.065 49.599,127.321C49.038,127.578 48.393,127.354 48.1,126.812C43.7,118.672 44.936,108.281 51.81,101.407C53.152,100.064 54.629,98.937 56.196,98.025C56.277,97.978 56.346,97.903 56.351,97.792C56.355,97.703 56.335,97.601 56.261,97.527C53.454,94.717 46.64,87.904 45.317,86.581C45.046,86.309 44.956,86.091 44.937,85.729C44.918,85.351 45.032,85.081 45.217,84.847C46.098,83.735 46.934,82.599 47.726,81.443C62.139,60.375 61.773,32.201 46.627,11.494C46.284,11.025 46.27,10.376 46.757,9.988C47.244,9.6 48,9.524 48.445,10.045C62.723,26.781 70.47,48.401 70.47,68.791Z"/></svg>