<?xml version="1.0" encoding="UTF-8" standalone="no"?><!DOCTYPE svg PUBLIC "-//W3C//DTD SVG 1.1//EN" "http://www.w3.org/Graphics/SVG/1.1/DTD/svg11.dtd"><svg width="100%" height="100%" viewBox="0 0 703 141" version="1.1" xmlns="http://www.w3.org/2000/svg" xmlns:xlink="http://www.w3.org/1999/xlink" xml:space="preserve" xmlns:serif="http://www.serif.com/" style="fill-rule:evenodd;clip-rule:evenodd;stroke-linejoin:round;stroke-miterlimit:2;"><g id="DUO2" transform="matrix(1,0,0,1,2.0203e-05,-73.7455)"><path d="M58.036,110.067C76.765,110.067 91.97,125.272 91.97,144C91.97,162.728 76.765,177.933 58.036,177.933C39.308,177.933 24.103,162.728 24.103,144C24.103,125.272 39.308,110.067 58.036,110.067ZM58.036,114.933C41.994,114.933 28.97,127.958 28.97,144C28.97,160.042 41.994,173.067 58.036,173.067C74.079,173.067 87.103,160.042 87.103,144C87.103,127.958 74.079,114.933 58.036,114.933Z"/></g></svg>