<?xml version="1.0" encoding="UTF-8" standalone="no"?><!DOCTYPE svg PUBLIC "-//W3C//DTD SVG 1.1//EN" "http://www.w3.org/Graphics/SVG/1.1/DTD/svg11.dtd"><svg width="100%" height="100%" viewBox="0 0 634 275" version="1.1" xmlns="http://www.w3.org/2000/svg" xmlns:xlink="http://www.w3.org/1999/xlink" xml:space="preserve" xmlns:serif="http://www.serif.com/" style="fill-rule:evenodd;clip-rule:evenodd;stroke-linejoin:round;stroke-miterlimit:2;"><g transform="matrix(1,0,0,1,-316.8,-409.8)"><path d="M393.6,470.4C435.987,470.4 470.4,504.813 470.4,547.2C470.4,589.587 435.987,624 393.6,624C351.213,624 316.8,589.587 316.8,547.2C316.8,504.813 351.213,470.4 393.6,470.4ZM393.6,480C356.511,480 326.4,510.111 326.4,547.2C326.4,584.289 356.511,614.4 393.6,614.4C430.689,614.4 460.8,584.289 460.8,547.2C460.8,510.111 430.689,480 393.6,480Z"/></g></svg>