<?xml version="1.0" encoding="UTF-8" standalone="no"?><!DOCTYPE svg PUBLIC "-//W3C//DTD SVG 1.1//EN" "http://www.w3.org/Graphics/SVG/1.1/DTD/svg11.dtd"><svg width="100%" height="100%" viewBox="0 0 2142 1233" version="1.1" xmlns="http://www.w3.org/2000/svg" xmlns:xlink="http://www.w3.org/1999/xlink" xml:space="preserve" xmlns:serif="http://www.serif.com/" style="fill-rule:evenodd;clip-rule:evenodd;stroke-linejoin:round;stroke-miterlimit:2;"><path d="M133.026,584.019C130.863,584.019 129.782,582.937 129.782,580.774L129.782,133.026C129.782,132.161 129.998,131.296 130.431,130.431C131.296,129.998 132.161,129.782 133.026,129.782L356.9,129.782C368.148,129.782 378.963,131.729 389.346,135.622C403.189,140.381 415.302,147.951 425.685,158.334C436.067,168.716 443.638,180.829 448.396,194.673C452.29,205.055 454.237,215.871 454.237,227.118L454.237,321.21C454.237,322.075 454.02,322.941 453.588,323.806C452.723,324.238 451.857,324.455 450.992,324.455L421.791,324.455C412.706,324.455 405.028,327.591 398.755,333.864C392.482,340.137 389.346,347.816 389.346,356.9C389.346,365.985 392.482,373.664 398.755,379.937C405.028,386.209 412.706,389.346 421.791,389.346L450.992,389.346C451.857,389.346 452.723,389.562 453.588,389.995C454.02,390.86 454.237,391.725 454.237,392.59L454.237,580.774C454.237,581.639 454.02,582.504 453.588,583.37C452.723,583.802 451.857,584.019 450.992,584.019L392.59,584.019C390.427,584.019 389.346,582.937 389.346,580.774L389.346,421.791C389.346,412.706 386.209,405.028 379.937,398.755C373.664,392.482 365.985,389.346 356.9,389.346L197.917,389.346C197.052,389.346 196.187,389.562 195.322,389.995C194.889,390.86 194.673,391.725 194.673,392.59L194.673,580.774C194.673,581.639 194.457,582.504 194.024,583.37C193.159,583.802 192.294,584.019 191.428,584.019L133.026,584.019ZM356.9,194.673L197.917,194.673C197.052,194.673 196.187,194.889 195.322,195.322C194.889,196.187 194.673,197.052 194.673,197.917L194.673,321.21C194.673,322.075 194.889,322.941 195.322,323.806C196.187,324.238 197.052,324.455 197.917,324.455L356.9,324.455C365.985,324.455 373.664,321.318 379.937,315.046C386.209,308.773 389.346,301.094 389.346,292.009L389.346,227.118C389.346,218.034 386.209,210.355 379.937,204.082C373.664,197.809 365.985,194.673 356.9,194.673ZM843.582,580.774C843.582,582.937 842.501,584.019 840.338,584.019L522.372,584.019C520.209,584.019 519.128,582.937 519.128,580.774L519.128,133.026C519.128,130.863 520.209,129.782 522.372,129.782L840.338,129.782C842.501,129.782 843.582,130.863 843.582,133.026L843.582,191.428C843.582,193.591 842.501,194.673 840.338,194.673L587.263,194.673C585.1,194.673 584.019,195.754 584.019,197.917L584.019,321.21C584.019,322.075 584.235,322.941 584.667,323.806C585.533,324.238 586.398,324.455 587.263,324.455L775.447,324.455C776.312,324.455 777.177,324.671 778.043,325.104C778.475,325.969 778.691,326.834 778.691,327.699L778.691,386.101C778.691,386.966 778.475,387.832 778.043,388.697C777.177,389.129 776.312,389.346 775.447,389.346L587.263,389.346C586.398,389.346 585.533,389.562 584.667,389.995C584.235,390.86 584.019,391.725 584.019,392.59L584.019,515.883C584.019,518.046 585.1,519.128 587.263,519.128L840.338,519.128C842.501,519.128 843.582,520.209 843.582,522.372L843.582,580.774ZM976.609,389.346C975.744,389.346 974.878,389.562 974.013,389.995C973.581,390.86 973.364,391.725 973.364,392.59L973.364,580.774C973.364,581.639 973.148,582.504 972.715,583.37C971.85,583.802 970.985,584.019 970.12,584.019L911.718,584.019C910.853,584.019 909.987,583.802 909.122,583.37C908.69,582.504 908.473,581.639 908.473,580.774L908.473,197.917C908.473,195.754 909.555,194.673 911.718,194.673L940.919,194.673C950.004,194.673 957.682,191.536 963.955,185.264C970.228,178.991 973.364,171.312 973.364,162.227L973.364,133.026C973.364,132.161 973.581,131.296 974.013,130.431C974.878,129.998 975.744,129.782 976.609,129.782L1164.79,129.782C1165.66,129.782 1166.52,129.998 1167.39,130.431C1167.82,131.296 1168.04,132.161 1168.04,133.026L1168.04,162.227C1168.04,171.312 1171.17,178.991 1177.45,185.264C1183.72,191.536 1191.4,194.673 1200.48,194.673L1229.68,194.673C1231.85,194.673 1232.93,195.754 1232.93,197.917L1232.93,580.774C1232.93,581.639 1232.71,582.504 1232.28,583.37C1231.41,583.802 1230.55,584.019 1229.68,584.019L1171.28,584.019C1170.42,584.019 1169.55,583.802 1168.69,583.37C1168.25,582.504 1168.04,581.639 1168.04,580.774L1168.04,392.59C1168.04,391.725 1167.82,390.86 1167.39,389.995C1166.52,389.562 1165.66,389.346 1164.79,389.346L976.609,389.346ZM973.364,227.118L973.364,321.21C973.364,322.075 973.581,322.941 974.013,323.806C974.878,324.238 975.744,324.455 976.609,324.455L1164.79,324.455C1165.66,324.455 1166.52,324.238 1167.39,323.806C1167.82,322.941 1168.04,322.075 1168.04,321.21L1168.04,227.118C1168.04,218.034 1164.9,210.355 1158.63,204.082C1152.36,197.809 1144.68,194.673 1135.59,194.673L1005.81,194.673C996.725,194.673 989.046,197.809 982.773,204.082C976.501,210.355 973.364,218.034 973.364,227.118ZM133.026,1038.26C130.863,1038.26 129.782,1037.17 129.782,1035.01L129.782,746.246C129.782,734.998 131.729,724.183 135.622,713.8C140.381,699.957 147.951,687.844 158.334,677.462C168.716,667.079 180.829,659.508 194.673,654.75C205.055,650.856 215.871,648.91 227.118,648.91L356.9,648.91C368.148,648.91 378.963,650.856 389.346,654.75C403.189,659.508 415.302,667.079 425.685,677.462C436.067,687.844 443.638,699.957 448.396,713.8C452.29,724.183 454.237,734.998 454.237,746.246L454.237,775.447C454.237,777.61 453.155,778.691 450.992,778.691L392.59,778.691C390.427,778.691 389.346,777.61 389.346,775.447L389.346,746.246C389.346,737.161 386.209,729.482 379.937,723.21C373.664,716.937 365.985,713.8 356.9,713.8L227.118,713.8C218.034,713.8 210.355,716.937 204.082,723.21C197.809,729.482 194.673,737.161 194.673,746.246L194.673,1005.81C194.673,1014.89 197.809,1022.57 204.082,1028.85C210.355,1035.12 218.034,1038.26 227.118,1038.26L356.9,1038.26C365.985,1038.26 373.664,1035.12 379.937,1028.85C386.209,1022.57 389.346,1014.89 389.346,1005.81L389.346,976.609C389.346,974.446 390.427,973.364 392.59,973.364L450.992,973.364C453.155,973.364 454.237,974.446 454.237,976.609L454.237,1035.01C454.237,1037.17 453.155,1038.26 450.992,1038.26L421.791,1038.26C412.706,1038.26 405.028,1041.39 398.755,1047.66C392.482,1053.94 389.346,1061.62 389.346,1070.7L389.346,1099.9C389.346,1100.77 389.129,1101.63 388.697,1102.5C387.832,1102.93 386.966,1103.15 386.101,1103.15L197.917,1103.15C197.052,1103.15 196.187,1102.93 195.322,1102.5C194.889,1101.63 194.673,1100.77 194.673,1099.9L194.673,1070.7C194.673,1061.62 191.536,1053.94 185.264,1047.66C178.991,1041.39 171.312,1038.26 162.227,1038.26L133.026,1038.26ZM522.372,1103.15C520.209,1103.15 519.128,1102.07 519.128,1099.9L519.128,652.154C519.128,649.991 520.209,648.91 522.372,648.91L580.774,648.91C581.639,648.91 582.504,649.126 583.37,649.558C583.802,650.424 584.019,651.289 584.019,652.154L584.019,1035.01C584.019,1037.17 585.1,1038.26 587.263,1038.26L840.338,1038.26C842.501,1038.26 843.582,1039.34 843.582,1041.5L843.582,1099.9C843.582,1102.07 842.501,1103.15 840.338,1103.15L522.372,1103.15ZM911.718,1038.26C909.555,1038.26 908.473,1037.17 908.473,1035.01L908.473,746.246C908.473,734.998 910.42,724.183 914.314,713.8C919.072,699.957 926.643,687.844 937.025,677.462C947.408,667.079 959.521,659.508 973.364,654.75C983.747,650.856 994.562,648.91 1005.81,648.91L1135.59,648.91C1146.84,648.91 1157.65,650.856 1168.04,654.75C1181.88,659.508 1193.99,667.079 1204.38,677.462C1214.76,687.844 1222.33,699.957 1227.09,713.8C1230.98,724.183 1232.93,734.998 1232.93,746.246L1232.93,1035.01C1232.93,1037.17 1231.85,1038.26 1229.68,1038.26L1200.48,1038.26C1191.4,1038.26 1183.72,1041.39 1177.45,1047.66C1171.17,1053.94 1168.04,1061.62 1168.04,1070.7L1168.04,1099.9C1168.04,1100.77 1167.82,1101.63 1167.39,1102.5C1166.52,1102.93 1165.66,1103.15 1164.79,1103.15L976.609,1103.15C975.744,1103.15 974.878,1102.93 974.013,1102.5C973.581,1101.63 973.364,1100.77 973.364,1099.9L973.364,1070.7C973.364,1061.62 970.228,1053.94 963.955,1047.66C957.682,1041.39 950.004,1038.26 940.919,1038.26L911.718,1038.26ZM974.662,1008.4C973.797,1009.27 973.581,1010.14 974.013,1011C974.878,1018.79 978.339,1025.28 984.396,1030.47C990.452,1035.66 997.59,1038.26 1005.81,1038.26L1135.59,1038.26C1144.68,1038.26 1152.36,1035.12 1158.63,1028.85C1164.9,1022.57 1168.04,1014.89 1168.04,1005.81L1168.04,833.849C1168.04,832.551 1167.39,831.469 1166.09,830.604C1164.79,830.172 1163.71,830.388 1162.85,831.253C1153.33,840.338 1120.88,870.945 1065.51,923.074C1010.14,975.203 979.853,1003.65 974.662,1008.4ZM1135.59,713.8L1005.81,713.8C996.725,713.8 989.046,716.937 982.773,723.21C976.501,729.482 973.364,737.161 973.364,746.246L973.364,918.207C973.364,919.505 974.013,920.586 975.311,921.452C976.609,921.884 977.69,921.668 978.556,920.803C989.803,910.42 1023.11,879.705 1078.49,828.657C1133.86,777.61 1163.28,750.572 1166.74,747.544C1167.61,746.679 1168.04,745.813 1168.04,744.948C1167.61,736.296 1164.25,728.942 1157.98,722.885C1151.71,716.829 1144.24,713.8 1135.59,713.8ZM1330.27,1038.26L1301.06,1038.26C1298.9,1038.26 1297.82,1037.17 1297.82,1035.01L1297.82,652.154C1297.82,651.289 1298.04,650.424 1298.47,649.558C1299.33,649.126 1300.2,648.91 1301.06,648.91L1359.46,648.91C1360.33,648.91 1361.2,649.126 1362.06,649.558C1362.49,650.424 1362.71,651.289 1362.71,652.154L1362.71,1005.81C1362.71,1014.89 1365.85,1022.57 1372.12,1028.85C1378.39,1035.12 1386.07,1038.26 1395.16,1038.26L1524.94,1038.26C1534.02,1038.26 1541.7,1035.12 1547.97,1028.85C1554.25,1022.57 1557.38,1014.89 1557.38,1005.81L1557.38,652.154C1557.38,651.289 1557.6,650.424 1558.03,649.558C1558.9,649.126 1559.76,648.91 1560.63,648.91L1619.03,648.91C1619.89,648.91 1620.76,649.126 1621.62,649.558C1622.06,650.424 1622.27,651.289 1622.27,652.154L1622.27,1035.01C1622.27,1037.17 1621.19,1038.26 1619.03,1038.26L1589.83,1038.26C1580.74,1038.26 1573.07,1041.39 1566.79,1047.66C1560.52,1053.94 1557.38,1061.62 1557.38,1070.7L1557.38,1099.9C1557.38,1100.77 1557.17,1101.63 1556.73,1102.5C1555.87,1102.93 1555,1103.15 1554.14,1103.15L1365.95,1103.15C1365.09,1103.15 1364.22,1102.93 1363.36,1102.5C1362.93,1101.63 1362.71,1100.77 1362.71,1099.9L1362.71,1070.7C1362.71,1061.62 1359.57,1053.94 1353.3,1047.66C1347.03,1041.39 1339.35,1038.26 1330.27,1038.26ZM1946.73,1099.9C1946.73,1102.07 1945.65,1103.15 1943.48,1103.15L1690.41,1103.15C1688.25,1103.15 1687.16,1102.07 1687.16,1099.9L1687.16,652.154C1687.16,651.289 1687.38,650.424 1687.81,649.558C1688.68,649.126 1689.54,648.91 1690.41,648.91L1914.28,648.91C1925.53,648.91 1936.35,650.856 1946.73,654.75C1960.57,659.508 1972.68,667.079 1983.07,677.462C1993.45,687.844 2001.02,699.957 2005.78,713.8C2009.67,724.183 2011.62,734.998 2011.62,746.246L2011.62,1035.01C2011.62,1037.17 2010.54,1038.26 2008.38,1038.26L1979.17,1038.26C1970.09,1038.26 1962.41,1041.39 1956.14,1047.66C1949.87,1053.94 1946.73,1061.62 1946.73,1070.7L1946.73,1099.9ZM1755.3,713.8C1753.14,713.8 1752.06,714.882 1752.06,717.045L1752.06,1035.01C1752.06,1037.17 1753.14,1038.26 1755.3,1038.26L1914.28,1038.26C1923.37,1038.26 1931.05,1035.12 1937.32,1028.85C1943.59,1022.57 1946.73,1014.89 1946.73,1005.81L1946.73,746.246C1946.73,737.161 1943.59,729.482 1937.32,723.21C1931.05,716.937 1923.37,713.8 1914.28,713.8L1755.3,713.8Z"/></svg>