<?xml version="1.0" encoding="UTF-8" standalone="no"?><!DOCTYPE svg PUBLIC "-//W3C//DTD SVG 1.1//EN" "http://www.w3.org/Graphics/SVG/1.1/DTD/svg11.dtd"><svg width="100%" height="100%" viewBox="0 0 2845 626" version="1.1" xmlns="http://www.w3.org/2000/svg" xmlns:xlink="http://www.w3.org/1999/xlink" xml:space="preserve" xmlns:serif="http://www.serif.com/" style="fill-rule:evenodd;clip-rule:evenodd;stroke-linejoin:round;stroke-miterlimit:2;"><path d="M116.609,511.943C114.713,511.943 113.765,510.995 113.765,509.099L113.765,116.609C113.765,115.851 113.955,115.092 114.334,114.334C115.092,113.955 115.851,113.765 116.609,113.765L312.854,113.765C322.714,113.765 332.194,115.472 341.295,118.885C353.43,123.056 364.048,129.692 373.15,138.793C382.251,147.895 388.887,158.513 393.058,170.648C396.471,179.749 398.178,189.229 398.178,199.089L398.178,281.569C398.178,282.327 397.988,283.085 397.609,283.844C396.851,284.223 396.092,284.413 395.334,284.413L369.737,284.413C361.773,284.413 355.042,287.162 349.543,292.661C344.045,298.159 341.295,304.89 341.295,312.854C341.295,320.818 344.045,327.549 349.543,333.047C355.042,338.546 361.773,341.295 369.737,341.295L395.334,341.295C396.092,341.295 396.851,341.485 397.609,341.864C397.988,342.623 398.178,343.381 398.178,344.139L398.178,509.099C398.178,509.857 397.988,510.616 397.609,511.374C396.851,511.753 396.092,511.943 395.334,511.943L344.139,511.943C342.243,511.943 341.295,510.995 341.295,509.099L341.295,369.737C341.295,361.773 338.546,355.042 333.047,349.543C327.549,344.045 320.818,341.295 312.854,341.295L173.492,341.295C172.733,341.295 171.975,341.485 171.216,341.864C170.837,342.623 170.648,343.381 170.648,344.139L170.648,509.099C170.648,509.857 170.458,510.616 170.079,511.374C169.32,511.753 168.562,511.943 167.804,511.943L116.609,511.943ZM312.854,170.648L173.492,170.648C172.733,170.648 171.975,170.837 171.216,171.216C170.837,171.975 170.648,172.733 170.648,173.492L170.648,281.569C170.648,282.327 170.837,283.085 171.216,283.844C171.975,284.223 172.733,284.413 173.492,284.413L312.854,284.413C320.818,284.413 327.549,281.663 333.047,276.165C338.546,270.666 341.295,263.935 341.295,255.971L341.295,199.089C341.295,191.125 338.546,184.394 333.047,178.896C327.549,173.397 320.818,170.648 312.854,170.648ZM739.473,509.099C739.473,510.995 738.525,511.943 736.629,511.943L457.905,511.943C456.008,511.943 455.06,510.995 455.06,509.099L455.06,116.609C455.06,114.713 456.008,113.765 457.905,113.765L736.629,113.765C738.525,113.765 739.473,114.713 739.473,116.609L739.473,167.804C739.473,169.7 738.525,170.648 736.629,170.648L514.787,170.648C512.891,170.648 511.943,171.596 511.943,173.492L511.943,281.569C511.943,282.327 512.133,283.085 512.512,283.844C513.27,284.223 514.029,284.413 514.787,284.413L679.746,284.413C680.505,284.413 681.263,284.602 682.022,284.982C682.401,285.74 682.591,286.498 682.591,287.257L682.591,338.451C682.591,339.21 682.401,339.968 682.022,340.726C681.263,341.106 680.505,341.295 679.746,341.295L514.787,341.295C514.029,341.295 513.27,341.485 512.512,341.864C512.133,342.623 511.943,343.381 511.943,344.139L511.943,452.216C511.943,454.112 512.891,455.06 514.787,455.06L736.629,455.06C738.525,455.06 739.473,456.008 739.473,457.905L739.473,509.099ZM856.082,341.295C855.324,341.295 854.566,341.485 853.807,341.864C853.428,342.623 853.238,343.381 853.238,344.139L853.238,509.099C853.238,509.857 853.049,510.616 852.669,511.374C851.911,511.753 851.153,511.943 850.394,511.943L799.2,511.943C798.441,511.943 797.683,511.753 796.925,511.374C796.545,510.616 796.356,509.857 796.356,509.099L796.356,173.492C796.356,171.596 797.304,170.648 799.2,170.648L824.797,170.648C832.761,170.648 839.492,167.898 844.99,162.4C850.489,156.901 853.238,150.17 853.238,142.206L853.238,116.609C853.238,115.851 853.428,115.092 853.807,114.334C854.566,113.955 855.324,113.765 856.082,113.765L1021.04,113.765C1021.8,113.765 1022.56,113.955 1023.32,114.334C1023.7,115.092 1023.89,115.851 1023.89,116.609L1023.89,142.206C1023.89,150.17 1026.63,156.901 1032.13,162.4C1037.63,167.898 1044.36,170.648 1052.33,170.648L1077.92,170.648C1079.82,170.648 1080.77,171.596 1080.77,173.492L1080.77,509.099C1080.77,509.857 1080.58,510.616 1080.2,511.374C1079.44,511.753 1078.68,511.943 1077.92,511.943L1026.73,511.943C1025.97,511.943 1025.21,511.753 1024.45,511.374C1024.08,510.616 1023.89,509.857 1023.89,509.099L1023.89,344.139C1023.89,343.381 1023.7,342.623 1023.32,341.864C1022.56,341.485 1021.8,341.295 1021.04,341.295L856.082,341.295ZM853.238,199.089L853.238,281.569C853.238,282.327 853.428,283.085 853.807,283.844C854.566,284.223 855.324,284.413 856.082,284.413L1021.04,284.413C1021.8,284.413 1022.56,284.223 1023.32,283.844C1023.7,283.085 1023.89,282.327 1023.89,281.569L1023.89,199.089C1023.89,191.125 1021.14,184.394 1015.64,178.896C1010.14,173.397 1003.41,170.648 995.445,170.648L881.68,170.648C873.716,170.648 866.985,173.397 861.486,178.896C855.988,184.394 853.238,191.125 853.238,199.089ZM1140.59,455.06C1138.69,455.06 1137.75,454.112 1137.75,452.216L1137.75,199.089C1137.75,189.229 1139.45,179.749 1142.87,170.648C1147.04,158.513 1153.67,147.895 1162.78,138.793C1171.88,129.692 1182.5,123.056 1194.63,118.885C1203.73,115.472 1213.21,113.765 1223.07,113.765L1336.84,113.765C1346.7,113.765 1356.18,115.472 1365.28,118.885C1377.41,123.056 1388.03,129.692 1397.13,138.793C1406.23,147.895 1412.87,158.513 1417.04,170.648C1420.45,179.749 1422.16,189.229 1422.16,199.089L1422.16,224.686C1422.16,226.582 1421.21,227.53 1419.32,227.53L1368.12,227.53C1366.23,227.53 1365.28,226.582 1365.28,224.686L1365.28,199.089C1365.28,191.125 1362.53,184.394 1357.03,178.896C1351.53,173.397 1344.8,170.648 1336.84,170.648L1223.07,170.648C1215.11,170.648 1208.38,173.397 1202.88,178.896C1197.38,184.394 1194.63,191.125 1194.63,199.089L1194.63,426.619C1194.63,434.583 1197.38,441.314 1202.88,446.812C1208.38,452.311 1215.11,455.06 1223.07,455.06L1336.84,455.06C1344.8,455.06 1351.53,452.311 1357.03,446.812C1362.53,441.314 1365.28,434.583 1365.28,426.619L1365.28,401.022C1365.28,399.126 1366.23,398.178 1368.12,398.178L1419.32,398.178C1421.21,398.178 1422.16,399.126 1422.16,401.022L1422.16,452.216C1422.16,454.112 1421.21,455.06 1419.32,455.06L1393.72,455.06C1385.76,455.06 1379.02,457.81 1373.53,463.308C1368.03,468.807 1365.28,475.538 1365.28,483.502L1365.28,509.099C1365.28,509.857 1365.09,510.616 1364.71,511.374C1363.95,511.753 1363.19,511.943 1362.43,511.943L1197.47,511.943C1196.71,511.943 1195.96,511.753 1195.2,511.374C1194.82,510.616 1194.63,509.857 1194.63,509.099L1194.63,483.502C1194.63,475.538 1191.88,468.807 1186.38,463.308C1180.88,457.81 1174.15,455.06 1166.19,455.06L1140.59,455.06ZM1481.89,511.943C1479.99,511.943 1479.04,510.995 1479.04,509.099L1479.04,116.609C1479.04,114.713 1479.99,113.765 1481.89,113.765L1533.08,113.765C1533.84,113.765 1534.6,113.955 1535.36,114.334C1535.74,115.092 1535.92,115.851 1535.92,116.609L1535.92,452.216C1535.92,454.112 1536.87,455.06 1538.77,455.06L1703.73,455.06C1705.62,455.06 1706.57,456.008 1706.57,457.905L1706.57,509.099C1706.57,510.995 1705.62,511.943 1703.73,511.943L1481.89,511.943ZM1766.3,455.06C1764.4,455.06 1763.45,454.112 1763.45,452.216L1763.45,199.089C1763.45,189.229 1765.16,179.749 1768.58,170.648C1772.75,158.513 1779.38,147.895 1788.48,138.793C1797.59,129.692 1808.2,123.056 1820.34,118.885C1829.44,115.472 1838.92,113.765 1848.78,113.765L1962.54,113.765C1972.4,113.765 1981.88,115.472 1990.99,118.885C2003.12,123.056 2013.74,129.692 2022.84,138.793C2031.94,147.895 2038.58,158.513 2042.75,170.648C2046.16,179.749 2047.87,189.229 2047.87,199.089L2047.87,452.216C2047.87,454.112 2046.92,455.06 2045.02,455.06L2019.43,455.06C2011.46,455.06 2004.73,457.81 1999.23,463.308C1993.74,468.807 1990.99,475.538 1990.99,483.502L1990.99,509.099C1990.99,509.857 1990.8,510.616 1990.42,511.374C1989.66,511.753 1988.9,511.943 1988.14,511.943L1823.18,511.943C1822.42,511.943 1821.66,511.753 1820.91,511.374C1820.53,510.616 1820.34,509.857 1820.34,509.099L1820.34,483.502C1820.34,475.538 1817.59,468.807 1812.09,463.308C1806.59,457.81 1799.86,455.06 1791.9,455.06L1766.3,455.06ZM1821.48,428.894C1820.72,429.653 1820.53,430.411 1820.91,431.17C1821.66,437.996 1824.7,443.684 1830.01,448.235C1835.32,452.785 1841.57,455.06 1848.78,455.06L1962.54,455.06C1970.51,455.06 1977.24,452.311 1982.74,446.812C1988.24,441.314 1990.99,434.583 1990.99,426.619L1990.99,275.88C1990.99,274.743 1990.42,273.795 1989.28,273.036C1988.14,272.657 1987.19,272.847 1986.43,273.605C1978.09,281.569 1949.65,308.398 1901.11,354.094C1852.57,399.79 1826.03,424.723 1821.48,428.894ZM1962.54,170.648L1848.78,170.648C1840.82,170.648 1834.08,173.397 1828.59,178.896C1823.09,184.394 1820.34,191.125 1820.34,199.089L1820.34,349.828C1820.34,350.965 1820.91,351.913 1822.04,352.672C1823.18,353.051 1824.13,352.861 1824.89,352.103C1834.75,343.002 1863.95,316.077 1912.49,271.33C1961.03,226.582 1986.81,202.881 1989.85,200.227C1990.61,199.468 1990.99,198.71 1990.99,197.951C1990.61,190.367 1987.67,183.92 1982.17,178.611C1976.67,173.302 1970.13,170.648 1962.54,170.648ZM2133.19,455.06L2107.6,455.06C2105.7,455.06 2104.75,454.112 2104.75,452.216L2104.75,116.609C2104.75,115.851 2104.94,115.092 2105.32,114.334C2106.08,113.955 2106.84,113.765 2107.6,113.765L2158.79,113.765C2159.55,113.765 2160.31,113.955 2161.06,114.334C2161.44,115.092 2161.63,115.851 2161.63,116.609L2161.63,426.619C2161.63,434.583 2164.38,441.314 2169.88,446.812C2175.38,452.311 2182.11,455.06 2190.07,455.06L2303.84,455.06C2311.8,455.06 2318.53,452.311 2324.03,446.812C2329.53,441.314 2332.28,434.583 2332.28,426.619L2332.28,116.609C2332.28,115.851 2332.47,115.092 2332.85,114.334C2333.61,113.955 2334.37,113.765 2335.12,113.765L2386.32,113.765C2387.08,113.765 2387.84,113.955 2388.59,114.334C2388.97,115.092 2389.16,115.851 2389.16,116.609L2389.16,452.216C2389.16,454.112 2388.22,455.06 2386.32,455.06L2360.72,455.06C2352.76,455.06 2346.03,457.81 2340.53,463.308C2335.03,468.807 2332.28,475.538 2332.28,483.502L2332.28,509.099C2332.28,509.857 2332.09,510.616 2331.71,511.374C2330.95,511.753 2330.2,511.943 2329.44,511.943L2164.48,511.943C2163.72,511.943 2162.96,511.753 2162.2,511.374C2161.82,510.616 2161.63,509.857 2161.63,509.099L2161.63,483.502C2161.63,475.538 2158.88,468.807 2153.39,463.308C2147.89,457.81 2141.16,455.06 2133.19,455.06ZM2673.58,509.099C2673.58,510.995 2672.63,511.943 2670.73,511.943L2448.89,511.943C2446.99,511.943 2446.05,510.995 2446.05,509.099L2446.05,116.609C2446.05,115.851 2446.24,115.092 2446.62,114.334C2447.37,113.955 2448.13,113.765 2448.89,113.765L2645.14,113.765C2654.99,113.765 2664.47,115.472 2673.58,118.885C2685.71,123.056 2696.33,129.692 2705.43,138.793C2714.53,147.895 2721.17,158.513 2725.34,170.648C2728.75,179.749 2730.46,189.229 2730.46,199.089L2730.46,452.216C2730.46,454.112 2729.51,455.06 2727.61,455.06L2702.02,455.06C2694.05,455.06 2687.32,457.81 2681.82,463.308C2676.33,468.807 2673.58,475.538 2673.58,483.502L2673.58,509.099ZM2505.77,170.648C2503.88,170.648 2502.93,171.596 2502.93,173.492L2502.93,452.216C2502.93,454.112 2503.88,455.06 2505.77,455.06L2645.14,455.06C2653.1,455.06 2659.83,452.311 2665.33,446.812C2670.83,441.314 2673.58,434.583 2673.58,426.619L2673.58,199.089C2673.58,191.125 2670.83,184.394 2665.33,178.896C2659.83,173.397 2653.1,170.648 2645.14,170.648L2505.77,170.648Z"/></svg>